<svg xmlns="http://www.w3.org/2000/svg" viewBox="0 0 500 500"><g id="freepik--Shadow--inject-2"><ellipse id="freepik--path--inject-2" cx="245.18" cy="412.39" rx="193.89" ry="11.32" style="fill:#f5f5f5"></ellipse></g><g id="freepik--Plant--inject-2"><path d="M400.44,350.73a53.69,53.69,0,0,1-.2,17.92l2.21.12a127.18,127.18,0,0,0-6.1-49.43s7.13,9.4,8.1,31.61c0,0,10.44-13.76,2.81-25S394,292.29,382.83,294.55a43.4,43.4,0,0,1,6.7,24.23C389.14,333,390.57,350.58,400.44,350.73Z" style="fill:#263238"></path><path d="M393.31,355.64A38.32,38.32,0,0,1,396,368.18l1.56-.25a91.14,91.14,0,0,0-11.92-33.58s6.43,5.46,10.56,20.82c0,0,5.16-11.22-1.92-17.92s-14.48-21.42-21.93-18.12A31.07,31.07,0,0,1,380.74,335C382.67,345,386.4,357.07,393.31,355.64Z" style="fill:#263238"></path><path d="M393.31,355.64A38.32,38.32,0,0,1,396,368.18l1.56-.25a91.14,91.14,0,0,0-11.92-33.58s6.43,5.46,10.56,20.82c0,0,5.16-11.22-1.92-17.92s-14.48-21.42-21.93-18.12A31.07,31.07,0,0,1,380.74,335C382.67,345,386.4,357.07,393.31,355.64Z" style="fill:#fff;opacity:0.2"></path><path d="M411.25,355a42.66,42.66,0,0,0-1.44,14.23l-1.77-.09a101.72,101.72,0,0,1,9.24-38.68s-6.49,6.83-9.24,24.36c0,0-7.06-11.84,0-20.12s13.52-25.48,22.17-22.7a34.58,34.58,0,0,0-7.47,18.62C421.79,342,419.08,355.8,411.25,355Z" style="fill:#263238"></path><path d="M411.25,355a42.66,42.66,0,0,0-1.44,14.23l-1.77-.09a101.72,101.72,0,0,1,9.24-38.68s-6.49,6.83-9.24,24.36c0,0-7.06-11.84,0-20.12s13.52-25.48,22.17-22.7a34.58,34.58,0,0,0-7.47,18.62C421.79,342,419.08,355.8,411.25,355Z" style="fill:#fff;opacity:0.4"></path><polygon points="416.48 411.37 387.52 411.37 385.11 366.21 418.9 366.21 416.48 411.37" style="fill:#EF4444"></polygon><polygon points="416.48 411.37 387.52 411.37 385.11 366.21 418.9 366.21 416.48 411.37" style="fill:#fff;opacity:0.5"></polygon><polygon points="409.05 411.37 412.61 411.37 415.03 366.21 411.46 366.21 409.05 411.37" style="fill:#fff;opacity:0.6000000000000001"></polygon></g><g id="freepik--Sofa--inject-2"><path d="M280.43,365.33h26.3L292.91,252.74a10,10,0,0,0-9.69-8.63H75L91.83,365.33Z" style="fill:#EF4444"></path><path d="M280.43,365.33h26.3L292.91,252.74a10,10,0,0,0-9.69-8.63H75L91.83,365.33Z" style="fill:#fff;opacity:0.1"></path><path d="M103.57,365.33H77.27L63.45,252.74A7.47,7.47,0,0,1,71,244.11h9a10,10,0,0,1,9.69,8.63Z" style="fill:#EF4444"></path><path d="M103.57,365.33H77.27L63.45,252.74A7.47,7.47,0,0,1,71,244.11h9a10,10,0,0,1,9.69,8.63Z" style="opacity:0.2"></path><path d="M119.23,380.38,114.13,326a5.18,5.18,0,0,0-4.54-4.67l-2-.24a7,7,0,0,1-6.1-6.26l-.93-9.93a7,7,0,0,1,6.89-7.61l-43.95.27a7,7,0,0,0-6.89,7.61l.93,9.93a7,7,0,0,0,6.1,6.26l2,.24a5.19,5.19,0,0,1,4.54,4.67l5.1,54.43a7.71,7.71,0,0,0,7.7,7l44-.28A7.68,7.68,0,0,1,119.23,380.38Z" style="fill:#EF4444"></path><path d="M119.23,380.38,114.13,326a5.18,5.18,0,0,0-4.54-4.67l-2-.24a7,7,0,0,1-6.1-6.26l-.93-9.93a7,7,0,0,1,6.89-7.61l-43.95.27a7,7,0,0,0-6.89,7.61l.93,9.93a7,7,0,0,0,6.1,6.26l2,.24a5.19,5.19,0,0,1,4.54,4.67l5.1,54.43a7.71,7.71,0,0,0,7.7,7l44-.28A7.68,7.68,0,0,1,119.23,380.38Z" style="opacity:0.3"></path><path d="M333.48,312.46A16.56,16.56,0,0,1,350,297.35H311.71a16.54,16.54,0,0,0-16.49,15.11l-3.78,43.17H329.7Z" style="fill:#EF4444"></path><path d="M333.48,312.46A16.56,16.56,0,0,1,350,297.35H311.71a16.54,16.54,0,0,0-16.49,15.11l-3.78,43.17H329.7Z" style="opacity:0.30000000000000004"></path><path d="M129.85,387.57h9a0,0,0,0,1,0,0v23.07a1.73,1.73,0,0,1-1.73,1.73h-4.51a2.73,2.73,0,0,1-2.73-2.73V387.57A0,0,0,0,1,129.85,387.57Z" style="fill:#EF4444"></path><path d="M336.69,387.57h9a0,0,0,0,1,0,0v23.07a1.73,1.73,0,0,1-1.73,1.73h-4.51a2.73,2.73,0,0,1-2.73-2.73V387.57A0,0,0,0,1,336.69,387.57Z" style="fill:#EF4444"></path><path d="M85.31,387.58h9a0,0,0,0,1,0,0v23.07a1.73,1.73,0,0,1-1.73,1.73H88a2.73,2.73,0,0,1-2.73-2.73V387.58a0,0,0,0,1,0,0Z" transform="translate(-2.47 0.56) rotate(-0.35)" style="fill:#EF4444"></path><path d="M85.31,387.58h9a0,0,0,0,1,0,0v23.07a1.73,1.73,0,0,1-1.73,1.73H88a2.73,2.73,0,0,1-2.73-2.73V387.58a0,0,0,0,1,0,0Z" transform="translate(-2.47 0.56) rotate(-0.35)" style="opacity:0.2"></path><path d="M291.87,387.57h9a0,0,0,0,1,0,0v23.07a1.73,1.73,0,0,1-1.73,1.73H294.6a2.73,2.73,0,0,1-2.73-2.73V387.57A0,0,0,0,1,291.87,387.57Z" style="fill:#EF4444"></path><path d="M291.87,387.57h9a0,0,0,0,1,0,0v23.07a1.73,1.73,0,0,1-1.73,1.73H294.6a2.73,2.73,0,0,1-2.73-2.73V387.57A0,0,0,0,1,291.87,387.57Z" style="opacity:0.2"></path><path d="M152.62,333.26H136.81c-3.84,0-7,2.69-7,6v10.35c0,3.32,3.12,6,7,6h15.81Z" style="fill:#EF4444"></path><path d="M152.62,333.26H136.81c-3.84,0-7,2.69-7,6v10.35c0,3.32,3.12,6,7,6h15.81Z" style="opacity:0.30000000000000004"></path><rect x="146.21" y="333.26" width="183.49" height="22.37" rx="5.42" style="fill:#EF4444"></rect><path d="M367,297.35H350a16.56,16.56,0,0,0-16.49,15.11l-3.78,43.17H145.11l-3.77-43.17a16.56,16.56,0,0,0-16.5-15.11h-17a7,7,0,0,0-6.94,7.57l.87,9.93a7,7,0,0,0,6.06,6.3l2,.25a5.18,5.18,0,0,1,4.52,4.69l4.76,54.46a7.7,7.7,0,0,0,7.66,7H348.08a7.69,7.69,0,0,0,7.66-7l4.77-54.46A5.18,5.18,0,0,1,365,321.4l2-.25a7,7,0,0,0,6.06-6.3l.86-9.93A7,7,0,0,0,367,297.35Z" style="fill:#EF4444"></path><path d="M367,297.35H350a16.56,16.56,0,0,0-16.49,15.11l-3.78,43.17H145.11l-3.77-43.17a16.56,16.56,0,0,0-16.5-15.11h-17a7,7,0,0,0-6.94,7.57l.87,9.93a7,7,0,0,0,6.06,6.3l2,.25a5.18,5.18,0,0,1,4.52,4.69l4.76,54.46a7.7,7.7,0,0,0,7.66,7H348.08a7.69,7.69,0,0,0,7.66-7l4.77-54.46A5.18,5.18,0,0,1,365,321.4l2-.25a7,7,0,0,0,6.06-6.3l.86-9.93A7,7,0,0,0,367,297.35Z" style="opacity:0.1"></path></g><g id="freepik--character-2--inject-2"><polygon points="333.39 395 335.94 410.01 342.64 409.38 341.87 393.89 333.39 395" style="fill:#ffb573"></polygon><path d="M343.39,408.44l-8.1.56a.52.52,0,0,0-.5.53h0l0,6.43a1.28,1.28,0,0,0,1.35,1.19c2.82-.24,4.16-.5,7.72-.77a67,67,0,0,0,9.47-1c3-.69,2.2-3.59.88-3.56a19.71,19.71,0,0,1-9.59-3.09A2.06,2.06,0,0,0,343.39,408.44Z" style="fill:#263238"></path><path d="M346,409.49a9,9,0,0,1-1.94-.12.17.17,0,0,1-.14-.12.24.24,0,0,1,.05-.18c.22-.18,2.17-1.71,3.08-1.43a.63.63,0,0,1,.42.45.89.89,0,0,1-.14,1A2,2,0,0,1,346,409.49Zm1-1.5c-.48-.15-1.64.54-2.44,1.13,1.31.16,2.25.06,2.57-.3a.64.64,0,0,0,.08-.61A.35.35,0,0,0,347,408Z" style="fill:#263238"></path><path d="M344.12,409.37h-.07a.17.17,0,0,1-.1-.12c0-.07-.31-2.15.36-2.91a.89.89,0,0,1,.7-.28.67.67,0,0,1,.65.46c.21.78-.76,2.36-1.44,2.83A.12.12,0,0,1,344.12,409.37Zm.8-2.94a.47.47,0,0,0-.35.18,3.69,3.69,0,0,0-.31,2.31,3.56,3.56,0,0,0,1.07-2.27c0-.1-.09-.21-.33-.22Z" style="fill:#263238"></path><polygon points="341.87 393.89 333.39 395 334.68 402.58 342.28 402.11 341.87 393.89" style="opacity:0.1"></polygon><path d="M273,288.86s2.92,19,6.92,19.69,55.91,10.08,59.58,22.08,3.68,68.84,3.68,68.84l-10.18.92s-11-50.76-10.34-64.26c0,0-47.5,0-62.33-8.17s-7.71-37.31-7.71-37.31Z" style="fill:#263238"></path><path d="M314.49,324.13c-4.12-8.25-48.62-10.58-48.62-10.58l30.61,21.51c8.71.67,16.73.92,21.54,1C317,332.44,315.84,326.83,314.49,324.13Z" style="opacity:0.6000000000000001"></path><polygon points="316.3 398.9 321.23 413.53 327.8 412.05 324.56 396.72 316.3 398.9" style="fill:#ffb573"></polygon><path d="M328.14,410.05l-7.9,1.85a.5.5,0,0,0-.41.59h0l1.08,6.35a1.26,1.26,0,0,0,1.49,1h0c2.75-.69,4-1.16,7.5-2a66.67,66.67,0,0,0,9.2-2.44c2.81-1.15,1.6-3.89.31-3.65-3.06.55-7.64-.45-10-1.54A2,2,0,0,0,328.14,410.05Z" style="fill:#263238"></path><path d="M330.92,410.67a9,9,0,0,1-1.94.18.15.15,0,0,1-.16-.09.19.19,0,0,1,0-.18c.19-.21,1.86-2,2.81-1.91a.66.66,0,0,1,.48.38.91.91,0,0,1,0,1A2,2,0,0,1,330.92,410.67Zm.7-1.63c-.51-.08-1.54.79-2.24,1.5,1.32-.05,2.24-.3,2.49-.7a.62.62,0,0,0,0-.62.28.28,0,0,0-.23-.18Z" style="fill:#263238"></path><path d="M329,410.85H329a.19.19,0,0,1-.12-.11c0-.06-.66-2.08-.11-2.93a.88.88,0,0,1,.64-.39.66.66,0,0,1,.72.36c.33.73-.37,2.45-1,3A.1.1,0,0,1,329,410.85Zm.32-3a.54.54,0,0,0-.32.23,3.74,3.74,0,0,0,.06,2.34,3.59,3.59,0,0,0,.71-2.41c0-.1-.13-.2-.37-.17Z" style="fill:#263238"></path><polygon points="318.6 405.72 326.12 404.09 324.56 396.72 316.3 398.9 318.6 405.72" style="opacity:0.1"></polygon><path d="M261.22,216.13s6.43-9-2.41-17.08c-9.56-8.74-18.35,2.07-18.35,2.07s-9.91,3.27-6.91,14.17S248,227.5,248,227.5Z" style="fill:#263238"></path><path d="M257.23,241.66c8-1.06,1.78-3.74,1.78-3.74-5.44-1-5.78-4.94-5.29-8.66l-10-7.3c1.5,4.69,3.47,13.32.53,16.62,0,0-2,4.27,10.48,3.32Z" style="fill:#ffb573"></path><path d="M247.8,224.94l5.91,4.32a14.6,14.6,0,0,0-.14,2.63c-2.06-.2-5.1-2.29-5.57-4.39A7.27,7.27,0,0,1,247.8,224.94Z" style="opacity:0.2"></path><path d="M239.25,212.61c1.79,7.6,2.38,10.85,6.92,14.33,6.83,5.23,15.74,1.9,16.25-5.95.46-7.07-2.54-18.31-10.55-20.49A10,10,0,0,0,239.25,212.61Z" style="fill:#ffb573"></path><path d="M245.59,206.78c-4,5.65,5,11.53-3.71,11.56s-5.73-12.4-.7-15.42S245.59,206.78,245.59,206.78Z" style="fill:#263238"></path><path d="M241.21,203c1.33,5.18,2.23,6.5,6.81,4.87a5.46,5.46,0,0,1-1-3.52,5.22,5.22,0,0,0,2.74,2.76,18.36,18.36,0,0,1,3.82-1.36,5,5,0,0,1-.33-2.25,4.84,4.84,0,0,0,1.85,2.05,13.42,13.42,0,0,1,4.23.55C259,200.6,249.43,195.09,241.21,203Z" style="fill:#263238"></path><path d="M251.45,213.34c.12.65.56,1.13,1,1.08s.65-.61.53-1.25-.56-1.13-1-1.08S251.33,212.7,251.45,213.34Z" style="fill:#263238"></path><path d="M258.74,211.94c.12.65.55,1.13,1,1.08s.65-.61.52-1.26-.55-1.12-1-1.07S258.61,211.3,258.74,211.94Z" style="fill:#263238"></path><path d="M259.09,210.74l1.43-.62S260,211.42,259.09,210.74Z" style="fill:#263238"></path><path d="M257.78,213.85a19.25,19.25,0,0,0,3,3.84,2.63,2.63,0,0,1-2.18.7Z" style="fill:#ed893e"></path><path d="M258,221.2a6.21,6.21,0,0,0,1.08-.15.17.17,0,0,0,.12-.22.21.21,0,0,0-.24-.15,5.48,5.48,0,0,1-4.6-1,.17.17,0,0,0-.26,0,.19.19,0,0,0,0,.27A5.76,5.76,0,0,0,258,221.2Z" style="fill:#263238"></path><path d="M249.28,210.49a.41.41,0,0,0,.25-.15,2.8,2.8,0,0,1,2.33-1.29.35.35,0,0,0,.38-.35.42.42,0,0,0-.39-.4,3.46,3.46,0,0,0-3,1.59.38.38,0,0,0,.11.52A.43.43,0,0,0,249.28,210.49Z" style="fill:#263238"></path><path d="M260.86,208.18a.3.3,0,0,0,.25-.12.37.37,0,0,0-.06-.53,4,4,0,0,0-3.41-1,.36.36,0,0,0-.25.46.42.42,0,0,0,.49.27,3.19,3.19,0,0,1,2.69.81A.41.41,0,0,0,260.86,208.18Z" style="fill:#263238"></path><path d="M251.8,212.14l1.44-.62S252.69,212.82,251.8,212.14Z" style="fill:#263238"></path><polygon points="257.21 213.3 259.46 215.47 263.8 214.61 263.88 211.13 262.95 208.11 248.04 211.51 238.57 218.08 239.23 219.35 248.84 214.62 251.71 217.16 257.19 215.97 257.21 213.3" style="fill:#EF4444"></polygon><polygon points="248.04 211.51 238.57 218.08 239.23 219.35 248.84 214.62 248.04 211.51" style="fill:#fff;opacity:0.6000000000000001"></polygon><polygon points="257.21 213.3 259.46 215.47 263.8 214.61 263.88 211.13 262.95 208.11 248.04 211.51 248.84 214.62 251.71 217.16 257.19 215.97 257.21 213.3" style="fill:#fff;opacity:0.8"></polygon><path d="M251.25,211.66l3.06-.71a1.35,1.35,0,0,1,1.62,1l.3,1.25a1.35,1.35,0,0,1-1,1.64l-2.91.65a1.33,1.33,0,0,1-1.55-.83l-.47-1.19A1.34,1.34,0,0,1,251.25,211.66Z" style="fill:#263238"></path><path d="M258.27,210.06l2.94-.68a1.3,1.3,0,0,1,1.55,1l.29,1.19a1.29,1.29,0,0,1-1,1.57l-2.79.63a1.3,1.3,0,0,1-1.49-.79l-.44-1.15A1.29,1.29,0,0,1,258.27,210.06Z" style="fill:#EF4444"></path><path d="M296.55,278.7l-.37-.08c-.73-.16-1.68-.33-2.5-.55s-1.66-.48-2.44-.78a15.19,15.19,0,0,1-4.09-2.16,8.88,8.88,0,0,1-1.43-1.36,7.45,7.45,0,0,1-.55-.74,3,3,0,0,1-.24-.38l-.27-.47-1.44-2.41-1.39-2.44c-1.81-3.26-3.5-6.61-5.07-10-.79-1.7-1.54-3.41-2.27-5.12-.37-.85-.72-1.71-1.05-2.57s-.69-1.75-1-2.48l0-.13A5,5,0,0,0,263,250.3c.37,1.12.68,2,1.07,3s.75,1.9,1.15,2.83c.78,1.88,1.63,3.71,2.53,5.52a110.4,110.4,0,0,0,6,10.55c1.09,1.71,2.25,3.37,3.43,5,.12.18.34.45.55.72a9.88,9.88,0,0,0,.66.77,12.64,12.64,0,0,0,1.46,1.38,16.3,16.3,0,0,0,3.25,2.09,19.47,19.47,0,0,0,6.83,1.82,20.6,20.6,0,0,0,3.33,0,21.39,21.39,0,0,0,3.34-.46,2.49,2.49,0,0,0,0-4.86Z" style="fill:#ffb573"></path><path d="M270.35,242.31s2.17,0,10.39,14.68c0,0-3.37,8.59-12.12,9C268.62,266,251.5,241.32,270.35,242.31Z" style="fill:#EF4444"></path><path d="M270.35,242.31s2.17,0,10.39,14.68c0,0-3.37,8.59-12.12,9C268.62,266,251.5,241.32,270.35,242.31Z" style="fill:#fff;opacity:0.5"></path><path d="M272.74,246.93l-4.54-1.13-5.33,2.93-1.06,2.78c1.37,6.67,6.81,14.51,6.81,14.51a12.92,12.92,0,0,0,8.93-4.25A98.75,98.75,0,0,1,272.74,246.93Z" style="fill:#263238;opacity:0.1"></path><path d="M304.29,278.26l-2.1-1.6a3.07,3.07,0,0,0-2.76-.49L295,277.55a5.72,5.72,0,0,0-3.75,3.68l-.36,1.09c3.3,2.89,9,3.58,9,3.58l1.6.38a2.56,2.56,0,0,0,3.13-1.84l.79-3.17A2.94,2.94,0,0,0,304.29,278.26Z" style="fill:#ffb573"></path><path d="M263.94,288.86s-2.08,24,1.93,24.69,41.9,3.08,45.57,15.08,15.69,71.84,15.69,71.84l-11.19,2.92s-23-53.76-22.33-67.26c0,0-38.5,5-53.34-3.17s-1.7-42.31-1.7-42.31Z" style="fill:#263238"></path><path d="M257.47,237.44c.28.17,6.72,4.36-1.68,4.36s-11.07-3.65-11.14-3.74c-3,.44-6.37,1.09-10.11,2l2.74,52.34s23.61,3.13,36.81-2.82c0,0,1.68-38.46-2.24-45C271.85,244.57,269.9,238.41,257.47,237.44Z" style="fill:#EF4444"></path><path d="M257.47,237.44c.28.17,6.72,4.36-1.68,4.36s-11.07-3.65-11.14-3.74c-3,.44-6.37,1.09-10.11,2l2.74,52.34s23.61,3.13,36.81-2.82c0,0,1.68-38.46-2.24-45C271.85,244.57,269.9,238.41,257.47,237.44Z" style="fill:#fff;opacity:0.5"></path><path d="M235.09,250.47l1.14,21.91c4.7-15.59,4.56-23.65,4.56-23.65l-1.25-2.93Z" style="fill:#263238;opacity:0.1"></path><polygon points="282.02 313.56 270.09 310.04 269.68 276.92 284.12 283.3 282.02 313.56" style="fill:#EF4444"></polygon><polygon points="280.32 313.06 282.05 282.39 284.12 283.3 282.02 313.56 280.32 313.06" style="fill:#EF4444"></polygon><polygon points="276.91 312.05 277.93 280.57 279.99 281.48 278.61 312.56 276.91 312.05" style="fill:#EF4444"></polygon><polygon points="273.5 311.05 273.81 278.74 275.87 279.65 275.2 311.55 273.5 311.05" style="fill:#EF4444"></polygon><polygon points="270.09 310.04 269.68 276.92 271.74 277.83 271.79 310.55 270.09 310.04" style="fill:#EF4444"></polygon><polygon points="280.32 313.06 282.05 282.39 284.12 283.3 282.02 313.56 280.32 313.06" style="fill:#fff;opacity:0.8"></polygon><polygon points="276.91 312.05 277.93 280.57 279.99 281.48 278.61 312.56 276.91 312.05" style="fill:#fff;opacity:0.8"></polygon><polygon points="273.5 311.05 273.81 278.74 275.87 279.65 275.2 311.55 273.5 311.05" style="fill:#fff;opacity:0.8"></polygon><polygon points="270.09 310.04 269.68 276.92 271.74 277.83 271.79 310.55 270.09 310.04" style="fill:#fff;opacity:0.8"></polygon><polygon points="294.32 311.71 282.02 313.56 284.12 283.3 299.3 278.95 294.32 311.71" style="fill:#EF4444"></polygon><polygon points="294.32 311.71 282.02 313.56 284.12 283.3 299.3 278.95 294.32 311.71" style="fill:#fff;opacity:0.4"></polygon><polygon points="299.3 278.95 284.86 272.57 269.68 276.92 284.12 283.3 299.3 278.95" style="fill:#EF4444"></polygon><polygon points="299.3 278.95 284.86 272.57 269.68 276.92 284.12 283.3 299.3 278.95" style="fill:#fff;opacity:0.30000000000000004"></polygon><polygon points="283.78 313.3 286.29 282.68 284.12 283.3 282.02 313.56 283.78 313.3" style="fill:#EF4444"></polygon><polygon points="287.29 312.77 290.62 281.44 288.45 282.06 285.54 313.03 287.29 312.77" style="fill:#EF4444"></polygon><polygon points="290.81 312.24 294.96 280.2 292.79 280.82 289.05 312.5 290.81 312.24" style="fill:#EF4444"></polygon><polygon points="294.32 311.71 299.3 278.95 297.13 279.58 292.56 311.98 294.32 311.71" style="fill:#EF4444"></polygon><path d="M291.91,278.58l-.11,0a1.1,1.1,0,0,0,.07-.44c-.07-.75-1-1.28-2.11-1.19a2.09,2.09,0,0,0-1.79,1.08,2.82,2.82,0,0,0-1.14-.14c-1.1.1-1.94.79-1.88,1.55s1,1.28,2.12,1.19h0a.16.16,0,0,0,0,.07c0,.52.7.9,1.47.83s1.35-.55,1.3-1.08a.68.68,0,0,0-.19-.41.79.79,0,0,0,.29-.35H290a3,3,0,0,0,.61-.13s0,.05,0,.07c0,.53.71.9,1.48.83s1.35-.55,1.3-1.07S292.67,278.51,291.91,278.58Z" style="fill:#fff"></path><path d="M292.35,271.8c-.78.07-1.37.57-1.32,1.11,0,0,0,.07,0,.1a2.94,2.94,0,0,0-.79,0,2.78,2.78,0,0,0-.78.17.4.4,0,0,0,0-.11c0-.54-.71-.92-1.49-.85s-1.36.56-1.32,1.1.72.93,1.5.86l.15,0a1.24,1.24,0,0,0-.11.57c.07.69.79,1.21,1.72,1.31a.55.55,0,0,0,0,.22c0,.54.71.93,1.49.86s1.37-.56,1.32-1.1a.89.89,0,0,0-.55-.69,1.27,1.27,0,0,0,.4-1,1.15,1.15,0,0,0-.2-.53h.15c.78-.06,1.37-.56,1.32-1.1S293.12,271.74,292.35,271.8Z" style="fill:#fff"></path><path d="M286.14,276.58a1.13,1.13,0,0,0,.27-.8c-.07-.85-1.25-1.44-2.63-1.32s-2.43.91-2.35,1.76c0,0,0,.07,0,.1a3.82,3.82,0,0,0-.9,0c-1.38.12-2.43.9-2.36,1.76s1.25,1.44,2.63,1.32a3.52,3.52,0,0,0,1.58-.52,2.58,2.58,0,0,0,1.81.46c1.15-.1,2-.76,2-1.47.57-.05,1-.37,1-.73S286.67,276.56,286.14,276.58Z" style="fill:#fff"></path><path d="M270.91,275.59a.84.84,0,0,1-.17-.6c.09-.62,1-1,2-.85s1.75.78,1.65,1.4a.24.24,0,0,1,0,.08,2.53,2.53,0,0,1,.67,0c1,.15,1.74.78,1.65,1.4s-1,1-2,.85a2.51,2.51,0,0,1-1.14-.45,1.82,1.82,0,0,1-1.35.25c-.84-.12-1.46-.64-1.38-1.16-.42-.06-.72-.32-.68-.58S270.51,275.55,270.91,275.59Z" style="fill:#fff"></path><path d="M293.23,278.42a.59.59,0,0,0-.08.44c.11.44.77.65,1.49.47s1.19-.67,1.08-1.11c0,0,0,0,0-.06a2,2,0,0,0,.47-.06c.72-.17,1.2-.67,1.09-1.11s-.78-.65-1.49-.48a1.88,1.88,0,0,0-.78.41,1.29,1.29,0,0,0-1-.09c-.59.14-1,.56-.9.92-.29.08-.5.29-.45.47S293,278.48,293.23,278.42Z" style="fill:#fff"></path><path d="M275.71,272.41a.78.78,0,0,1,.12-.57c.35-.47,1.25-.39,2,.17s1.09,1.39.74,1.86l-.06.05a2.43,2.43,0,0,1,.54.31c.76.56,1.09,1.39.74,1.86s-1.24.4-2-.16a2.35,2.35,0,0,1-.73-.87,1.66,1.66,0,0,1-1.22-.38c-.63-.46-.91-1.15-.62-1.54-.32-.24-.45-.58-.31-.78S275.4,272.2,275.71,272.41Z" style="fill:#fff"></path><path d="M279.27,280.4a.72.72,0,0,1-.22-.53c0-.58.8-1,1.74-1s1.69.52,1.67,1.11c0,0,0,0,0,.07a2.48,2.48,0,0,1,.62-.05c.94,0,1.69.52,1.67,1.11s-.8,1-1.74,1a2.54,2.54,0,0,1-1.1-.29,1.78,1.78,0,0,1-1.22.38c-.78,0-1.4-.44-1.39-.93-.39,0-.7-.21-.69-.46S278.9,280.41,279.27,280.4Z" style="fill:#fff"></path><path d="M280.35,273.52a1,1,0,0,0-.09.71c.21.68,1.29,1,2.4.63s1.84-1.18,1.63-1.87l0-.08a3.4,3.4,0,0,0,.75-.14c1.12-.34,1.85-1.17,1.63-1.86s-1.28-1-2.4-.63A3,3,0,0,0,283,271a2.07,2.07,0,0,0-1.57-.06c-.93.28-1.53,1-1.36,1.54-.46.15-.76.49-.68.78S279.91,273.63,280.35,273.52Z" style="fill:#fff"></path><path d="M253.33,267.45a1,1,0,0,0-.08.7c.21.69,1.28,1,2.4.63s1.84-1.17,1.63-1.86l0-.08a3.52,3.52,0,0,0,.75-.14c1.11-.34,1.84-1.17,1.63-1.86s-1.28-1-2.4-.63a3,3,0,0,0-1.21.7,2.17,2.17,0,0,0-1.57-.06c-.93.29-1.54,1-1.36,1.55-.46.14-.77.49-.68.77S252.9,267.56,253.33,267.45Z" style="fill:#fff"></path><path d="M250.45,274.09a2.49,2.49,0,0,0-3.08-1.71l-.07,0c-2,.57-4.05,1.2-6.07,1.72s-4,1.06-6,1.46a32.45,32.45,0,0,1-5.44.77c.8-3.44,1.8-6.9,2.89-10.34.7-2.13,1.41-4.26,2.16-6.38s1.56-4.27,2.31-6.26l0-.11a5,5,0,0,0-9.27-3.74c-1,2.31-1.78,4.51-2.59,6.78s-1.5,4.56-2.14,6.88-1.21,4.67-1.7,7-.88,4.81-1.18,7.26l0,.3a3.53,3.53,0,0,0,0,.65,7.1,7.1,0,0,0,.51,2.15,6.33,6.33,0,0,0,1.38,2.1,7.14,7.14,0,0,0,3.47,1.92,13,13,0,0,0,4.74.1,34.47,34.47,0,0,0,7-1.9c2.14-.8,4.19-1.7,6.19-2.68s3.93-2,5.86-3.22A2.49,2.49,0,0,0,250.45,274.09Z" style="fill:#ffb573"></path><path d="M219.79,260.94a22,22,0,0,0,15.45,6.33s11.09-24.89,2.3-27.37C229.2,237.55,219.79,260.94,219.79,260.94Z" style="fill:#EF4444"></path><path d="M219.79,260.94a22,22,0,0,0,15.45,6.33s11.09-24.89,2.3-27.37C229.2,237.55,219.79,260.94,219.79,260.94Z" style="fill:#fff;opacity:0.5"></path><path d="M253.39,266.5l-2.63.14a3,3,0,0,0-2.43,1.41L245.84,272a5.7,5.7,0,0,0-.48,5.23l.43,1.06c4.39.08,9.18-3.08,9.18-3.08l1.46-.74a2.56,2.56,0,0,0,1.21-3.43l-1.45-2.93A2.94,2.94,0,0,0,253.39,266.5Z" style="fill:#ffb573"></path><path d="M238.84,220a5.4,5.4,0,0,0,3.39,2.71c1.8.39,2.49-1.69,1.8-3.71-.62-1.81-2.3-4.2-4-3.68S237.86,218.28,238.84,220Z" style="fill:#ffb573"></path></g><g id="freepik--character-1--inject-2"><path d="M184.15,237.17l2.33,1.49,2.46,1.53c1.66,1,3.33,2,5,3,3.36,2,6.79,3.87,10.26,5.72l1,.55a4.65,4.65,0,0,0,.76.31,6,6,0,0,0,1.78.36,13.41,13.41,0,0,0,4.49-.54,40.08,40.08,0,0,0,9.82-4.57l3.74,4a32.28,32.28,0,0,1-4.75,4.68,30.11,30.11,0,0,1-5.75,3.7,20.46,20.46,0,0,1-7.28,2.07,15.9,15.9,0,0,1-4.22-.2,16.08,16.08,0,0,1-2.14-.57l-1-.38L200,258q-5.78-2.35-11.32-5.25-2.78-1.45-5.47-3.07c-.9-.54-1.79-1.1-2.68-1.67s-1.74-1.14-2.72-1.84Z" style="fill:#ce7a63"></path><path d="M199.42,243.86l-5.58,13.55s-.64-.19-1.72-.55c-.79-.26-1.82-.62-3-1.05-6.77-2.42-17.7-7.7-20.3-11.94-3.87-6.31,2.17-11.2,13.46-9.13,4.88.89,9.33,4.55,12.68,6.46,1.11.63,2.06,1.2,2.8,1.63Z" style="fill:#263238"></path><path d="M221.53,246.56l2.3-8.25,6.78,4.65s-3.39,7.39-5.87,6.81Z" style="fill:#ce7a63"></path><polygon points="230.72 234.96 234.59 239.42 230.61 242.96 223.82 238.31 230.72 234.96" style="fill:#ce7a63"></polygon><path d="M192.59,257l1.25.4,5.58-13.55-1-.63Z" style="fill:#EF4444"></path><path d="M182.09,239.9,177.8,239,175,243.23l2.46,7.33a85.36,85.36,0,0,0,10.94,5A60.72,60.72,0,0,0,182.09,239.9Z" style="opacity:0.30000000000000004"></path><polygon points="242.89 396.72 245.48 411.73 252.27 411.1 251.49 395.61 242.89 396.72" style="fill:#ce7a63"></polygon><polygon points="244.78 407.7 252.07 407.14 251.49 395.61 242.89 396.72 244.78 407.7" style="opacity:0.2"></polygon><path d="M252.57,410.16l-8.22.56a.52.52,0,0,0-.5.53h0l.05,6.43a1.29,1.29,0,0,0,1.37,1.19c2.86-.24,4.22-.5,7.83-.77a69,69,0,0,0,9.61-1c3-.69,2.23-3.59.89-3.56a20.34,20.34,0,0,1-9.73-3.09A2,2,0,0,0,252.57,410.16Z" style="fill:#263238"></path><path d="M255.25,411.21a9.28,9.28,0,0,1-2-.12.19.19,0,0,1-.14-.12.23.23,0,0,1,.05-.18c.22-.18,2.2-1.71,3.13-1.43a.63.63,0,0,1,.42.45.87.87,0,0,1-.14.95A2.11,2.11,0,0,1,255.25,411.21Zm1-1.5c-.48-.15-1.66.54-2.47,1.13,1.33.16,2.28.06,2.61-.3a.64.64,0,0,0,.08-.61.37.37,0,0,0-.22-.22Z" style="fill:#263238"></path><path d="M253.31,411.09a.09.09,0,0,1-.07,0,.23.23,0,0,1-.1-.12c0-.07-.31-2.15.37-2.91a.89.89,0,0,1,.71-.28.68.68,0,0,1,.66.46c.21.78-.78,2.36-1.47,2.83A.11.11,0,0,1,253.31,411.09Zm.81-2.94a.47.47,0,0,0-.35.18,3.62,3.62,0,0,0-.32,2.31,3.49,3.49,0,0,0,1.09-2.27c0-.1-.09-.21-.33-.22Z" style="fill:#263238"></path><path d="M184.22,290.58s-1.09,18,3,18.69,56.72,10.08,60.44,22.08,5.77,69.84,5.77,69.84l-11.35.92s-11.63-55.77-9.47-64.26c0,0-48.19,0-63.24-8.17s-7.81-37.32-7.81-37.32Z" style="fill:#EF4444"></path><path d="M184.22,290.58s-1.09,18,3,18.69,56.72,10.08,60.44,22.08,5.77,69.84,5.77,69.84l-11.35.92s-11.63-55.77-9.47-64.26c0,0-48.19,0-63.24-8.17s-7.81-37.32-7.81-37.32Z" style="fill:#fff;opacity:0.6000000000000001"></path><path d="M224.27,327.85c-6.13-11.17-47.43-12.34-47.43-12.34L206,336.78c8.83.67,17,.92,21.85,1A48.65,48.65,0,0,0,224.27,327.85Z" style="opacity:0.2"></path><polygon points="226.1 400.62 231.11 415.25 237.77 413.77 234.49 398.44 226.1 400.62" style="fill:#ce7a63"></polygon><polygon points="236.68 408.68 234.49 398.44 226.1 400.62 229.46 410.45 236.68 408.68" style="opacity:0.2"></polygon><path d="M173,290.58s-2.11,22,1.95,22.69,42.52,5.08,46.24,17.08,15.91,71.84,15.91,71.84l-11.35,2.92s-23.33-53.76-22.66-67.26c0,0-39,3-54-5.17s-1.81-40.32-1.81-40.32Z" style="fill:#EF4444"></path><path d="M173,290.58s-2.11,22,1.95,22.69,42.52,5.08,46.24,17.08,15.91,71.84,15.91,71.84l-11.35,2.92s-23.33-53.76-22.66-67.26c0,0-39,3-54-5.17s-1.81-40.32-1.81-40.32Z" style="fill:#fff;opacity:0.6000000000000001"></path><polygon points="224.19 404.73 226.02 409.01 238.78 405.83 238.07 401.2 224.19 404.73" style="fill:#EF4444"></polygon><polygon points="224.19 404.73 226.02 409.01 238.78 405.83 238.07 401.2 224.19 404.73" style="fill:#fff;opacity:0.7000000000000001"></polygon><polygon points="240.45 401.2 241.59 405.71 254.69 404.51 254.71 399.84 240.45 401.2" style="fill:#EF4444"></polygon><polygon points="240.45 401.2 241.59 405.71 254.69 404.51 254.71 399.84 240.45 401.2" style="fill:#fff;opacity:0.7000000000000001"></polygon><path d="M238.12,411.77l-8,1.85a.5.5,0,0,0-.41.59h0l1.09,6.35a1.28,1.28,0,0,0,1.51,1h0c2.79-.69,4.06-1.16,7.61-2a67.69,67.69,0,0,0,9.33-2.44c2.86-1.15,1.63-3.89.32-3.65-3.1.55-7.75-.45-10.15-1.54A2,2,0,0,0,238.12,411.77Z" style="fill:#263238"></path><path d="M240.94,412.39a9.32,9.32,0,0,1-2,.18.15.15,0,0,1-.16-.09.15.15,0,0,1,0-.18c.19-.21,1.88-2,2.85-1.91a.64.64,0,0,1,.48.38.87.87,0,0,1,0,1A2,2,0,0,1,240.94,412.39Zm.71-1.63c-.52-.08-1.57.79-2.28,1.5,1.34-.05,2.28-.3,2.53-.7a.58.58,0,0,0,0-.62.28.28,0,0,0-.23-.18Z" style="fill:#263238"></path><path d="M239,412.57h-.06a.19.19,0,0,1-.12-.11c0-.06-.67-2.08-.12-2.93a.91.91,0,0,1,.65-.39.66.66,0,0,1,.73.36c.34.73-.37,2.45-1,3A.12.12,0,0,1,239,412.57Zm.32-3a.5.5,0,0,0-.32.23,3.75,3.75,0,0,0,.06,2.34,3.55,3.55,0,0,0,.72-2.41c0-.1-.13-.2-.38-.17Z" style="fill:#263238"></path><path d="M143.79,269.88c.48,11.64.52,20.23.65,25.07l40.74.1c3.06-39.28-4.49-59.63-4.49-59.63s-1.53-.44-4.11-1c-2-.39-4.56-.82-7.16-1.06a144.1,144.1,0,0,0-16.89,0c-2.94.14-5.95.5-8.34.85-2.89.42-4.9.83-4.9.83.19.8.37,1.59.55,2.39A190.31,190.31,0,0,1,143.79,269.88Z" style="fill:#263238"></path><path d="M146.64,293.82l7.24-2-2.95,8.89s-6.72.61-6.75-2.88Z" style="fill:#ce7a63"></path><polygon points="159.79 295.57 157 302.79 150.93 300.71 153.88 291.82 159.79 295.57" style="fill:#ce7a63"></polygon><path d="M143.79,269.89a190.19,190.19,0,0,0-3.95-32.41c2.65-.23,7.19,0,7.94,4.32C148.6,246.41,147.57,257.25,143.79,269.89Z" style="opacity:0.30000000000000004"></path><path d="M146.06,245.78c-.94,2-2,4.31-2.89,6.52s-1.82,4.46-2.66,6.7-1.58,4.5-2.25,6.75a67.63,67.63,0,0,0-1.61,6.73l-.08.41,0,.21c0,.07,0,0,0,0a.56.56,0,0,0,0,.2,4.17,4.17,0,0,0,.1.95,13.76,13.76,0,0,0,.87,2.74,49.33,49.33,0,0,0,3.16,6.09c2.44,4.08,5.28,8.21,8.12,12.18l-3.95,3.75a84.56,84.56,0,0,1-11-11.15,47.85,47.85,0,0,1-4.67-6.8,23.55,23.55,0,0,1-1.88-4.28,14.58,14.58,0,0,1-.57-2.76,13.09,13.09,0,0,1,0-1.68l0-.42,0-.26,0-.52a74.13,74.13,0,0,1,3.46-15.76q1.23-3.77,2.73-7.39c.5-1.21,1-2.41,1.57-3.61s1.09-2.35,1.75-3.63Z" style="fill:#ce7a63"></path><path d="M147.65,247.76a130.92,130.92,0,0,1-6,14.14c-.5,1-1,2-1.34,2.7-.65,1.31-1.07,2.1-1.07,2.1l-14.12-7.82s.18-.59.5-1.59c.25-.75.57-1.74,1-2.88,2.35-6.7,7.15-18.65,11.86-19.34C145.44,234.05,150.51,239.31,147.65,247.76Z" style="fill:#263238"></path><path d="M139.94,265.27c-3.07-1.7-11.68-6.46-14.4-7.84l-.46,1.45,14.12,7.82S139.48,266.17,139.94,265.27Z" style="fill:#EF4444"></path><path d="M152.53,233.4a137.43,137.43,0,0,1,17.51.06l.56.29a2.91,2.91,0,0,1,.87,2.59c-.43,1.68-2.72,2.24-4.74,2.47a10.87,10.87,0,0,1-.16,1.19,1.43,1.43,0,0,1-1.22,1.12h0a1.41,1.41,0,0,1-1.27-.51,10.38,10.38,0,0,0-1.82-1.63c-9.81-.27-11.28-5.06-11.34-5.27l-.06-.21Z" style="fill:#EF4444"></path><path d="M165.8,237.89c8.64-.7,2.82-4.56,2.82-4.56-4.91-1.16-5.77-4.19-5.44-7.53a20.37,20.37,0,0,1,.39-2.49l-6.15-5.11-4.52-3.75c1.25,5.45,2.66,15.36-1,19,0,0,1.25,4.38,10.7,4.54Z" style="fill:#ce7a63"></path><path d="M163.57,223.31a20.37,20.37,0,0,0-.39,2.49c-2.3-.46-5.36-2.91-5.68-5.25a10.15,10.15,0,0,1-.08-2.35Z" style="opacity:0.2"></path><path d="M167.74,195.47c3.67,1.65,5.71,12,1,14.19S160.81,192.33,167.74,195.47Z" style="fill:#263238"></path><path d="M151,206.63c1.57,7.22,2.12,11.52,6.39,14.81A9.61,9.61,0,0,0,173,214.53c.56-6.73-2.1-17.42-9.7-19.46A9.73,9.73,0,0,0,151,206.63Z" style="fill:#ce7a63"></path><path d="M142.64,198.66c-3.5,1.56-1.51,6.37.88,9.43,3.31,4.24,6.82,6.23,9.21,4.27,2.15-1.08,3.56-7.39,1.69-11.3,3.3-2.16,14.59,1.55,18.21-7.41,1.62-4-3.07-15-8.35-10.45-3.33,2.87-7.15,9.23-12,8.14C144.81,189.66,139.13,194.5,142.64,198.66Z" style="fill:#263238"></path><path d="M165.93,199.41a10.34,10.34,0,0,0,7.84-9.8C174.52,194.86,170.43,200.11,165.93,199.41Z" style="fill:#263238"></path><path d="M140.44,192.5a10.37,10.37,0,0,0,7.31,10.21C142.49,202,138.55,196.64,140.44,192.5Z" style="fill:#263238"></path><path d="M162.43,206.54c.09.6.48,1,.87,1s.63-.56.54-1.15-.48-1-.87-1S162.34,206,162.43,206.54Z" style="fill:#263238"></path><path d="M169.16,205.74c.09.6.48,1,.87,1s.63-.56.54-1.15-.48-1-.87-1S169.07,205.15,169.16,205.74Z" style="fill:#263238"></path><path d="M167.26,206.89a22.24,22.24,0,0,0,3.63,4.73,3.38,3.38,0,0,1-2.76.87Z" style="fill:#ba4d3c"></path><path d="M166.74,214.78a5.16,5.16,0,0,1-3.74-1.54.18.18,0,0,1,0-.25.18.18,0,0,1,.25,0,5,5,0,0,0,4.13,1.38.16.16,0,0,1,.19.15.17.17,0,0,1-.15.2A5.58,5.58,0,0,1,166.74,214.78Z" style="fill:#263238"></path><path d="M160,204.63a.36.36,0,0,1-.31-.52,3.39,3.39,0,0,1,2.63-1.79.36.36,0,0,1,0,.71,2.66,2.66,0,0,0-2,1.42A.38.38,0,0,1,160,204.63Z" style="fill:#263238"></path><path d="M171.69,203.1a.36.36,0,0,1-.29-.16,2.94,2.94,0,0,0-2.22-1.34.35.35,0,0,1-.35-.36.35.35,0,0,1,.35-.35h0a3.62,3.62,0,0,1,2.8,1.66.35.35,0,0,1-.09.49A.36.36,0,0,1,171.69,203.1Z" style="fill:#263238"></path><polygon points="167.23 206.89 169.32 209.22 173.72 208.65 174.03 205.18 173.31 202.11 158.21 204.47 148.3 210.36 148.87 211.67 158.79 207.63 161.47 210.36 167.03 209.55 167.23 206.89" style="fill:#EF4444"></polygon><polygon points="158.21 204.47 148.3 210.36 148.87 211.67 158.79 207.63 158.21 204.47" style="fill:#fff;opacity:0.6000000000000001"></polygon><polygon points="167.23 206.89 169.32 209.22 173.72 208.65 174.03 205.18 173.31 202.11 158.21 204.47 158.79 207.63 161.47 210.36 167.03 209.55 167.23 206.89" style="fill:#fff;opacity:0.8"></polygon><path d="M161.39,204.84l3.11-.5a1.35,1.35,0,0,1,1.54,1.11l.22,1.26a1.36,1.36,0,0,1-1.12,1.57l-2.95.45a1.35,1.35,0,0,1-1.49-.94l-.38-1.22A1.34,1.34,0,0,1,161.39,204.84Z" style="fill:#263238"></path><path d="M168.51,203.73l3-.47a1.3,1.3,0,0,1,1.48,1.06l.21,1.21a1.29,1.29,0,0,1-1.08,1.5l-2.83.43a1.29,1.29,0,0,1-1.43-.89l-.36-1.17A1.3,1.3,0,0,1,168.51,203.73Z" style="fill:#EF4444"></path><path d="M149.37,214.17a7.89,7.89,0,0,0,4.58,2.72c2.28.39,2.79-1.72,1.64-3.76-1.05-1.83-3.49-4.25-5.52-3.71S147.89,212.39,149.37,214.17Z" style="fill:#ce7a63"></path><polygon points="174.36 311.57 186.47 308.7 188.67 275.65 173.9 281.24 174.36 311.57" style="fill:#EF4444"></polygon><polygon points="176.09 311.16 176.01 280.44 173.9 281.24 174.36 311.57 176.09 311.16" style="fill:#EF4444"></polygon><polygon points="179.55 310.34 180.23 278.85 178.12 279.64 177.82 310.75 179.55 310.34" style="fill:#EF4444"></polygon><polygon points="183.01 309.52 184.45 277.25 182.34 278.05 181.28 309.93 183.01 309.52" style="fill:#EF4444"></polygon><polygon points="186.47 308.7 188.67 275.65 186.56 276.45 184.74 309.11 186.47 308.7" style="fill:#EF4444"></polygon><polygon points="176.09 311.16 176.01 280.44 173.9 281.24 174.36 311.57 176.09 311.16" style="fill:#fff;opacity:0.8"></polygon><polygon points="179.55 310.34 180.23 278.85 178.12 279.64 177.82 310.75 179.55 310.34" style="fill:#fff;opacity:0.8"></polygon><polygon points="183.01 309.52 184.45 277.25 182.34 278.05 181.28 309.93 183.01 309.52" style="fill:#fff;opacity:0.8"></polygon><polygon points="186.47 308.7 188.67 275.65 186.56 276.45 184.74 309.11 186.47 308.7" style="fill:#fff;opacity:0.8"></polygon><polygon points="162.18 309.06 174.36 311.57 173.9 281.24 158.98 276.08 162.18 309.06" style="fill:#EF4444"></polygon><polygon points="162.18 309.06 174.36 311.57 173.9 281.24 158.98 276.08 162.18 309.06" style="fill:#fff;opacity:0.4"></polygon><polygon points="158.98 276.08 173.74 270.49 188.67 275.65 173.9 281.24 158.98 276.08" style="fill:#EF4444"></polygon><polygon points="158.98 276.08 173.74 270.49 188.67 275.65 173.9 281.24 158.98 276.08" style="fill:#fff;opacity:0.30000000000000004"></polygon><polygon points="172.62 311.21 171.77 280.51 173.9 281.24 174.36 311.57 172.62 311.21" style="fill:#EF4444"></polygon><polygon points="169.14 310.49 167.51 279.03 169.64 279.77 170.88 310.85 169.14 310.49" style="fill:#EF4444"></polygon><polygon points="165.66 309.78 163.25 277.56 165.38 278.29 167.4 310.13 165.66 309.78" style="fill:#EF4444"></polygon><polygon points="162.18 309.06 158.98 276.08 161.11 276.82 163.92 309.42 162.18 309.06" style="fill:#EF4444"></polygon><path d="M166.38,276.11l.11,0a.94.94,0,0,1-.05-.44c.11-.75,1.08-1.23,2.18-1.07a2.1,2.1,0,0,1,1.73,1.17,2.67,2.67,0,0,1,1.14-.07c1.09.15,1.89.89,1.79,1.64s-1.09,1.23-2.18,1.07h0v.07c-.08.53-.75.86-1.52.75s-1.31-.62-1.24-1.14a.71.71,0,0,1,.21-.4.79.79,0,0,1-.27-.37h0a2.38,2.38,0,0,1-.61-.16.22.22,0,0,1,0,.08c-.07.52-.75.86-1.51.75s-1.32-.62-1.24-1.15S165.62,276,166.38,276.11Z" style="fill:#fff"></path><path d="M166.31,269.32c.77.11,1.33.63,1.25,1.17a.29.29,0,0,1,0,.1,3.07,3.07,0,0,1,.8,0,3,3,0,0,1,.77.22.41.41,0,0,1,0-.11c.08-.54.76-.88,1.54-.77s1.33.63,1.25,1.17-.76.88-1.53.77a.66.66,0,0,1-.15,0,1.13,1.13,0,0,1,.07.57,1.73,1.73,0,0,1-1.78,1.22.54.54,0,0,1,0,.22c-.07.54-.76.89-1.53.78s-1.34-.64-1.26-1.18a.91.91,0,0,1,.58-.66,1.28,1.28,0,0,1-.34-1,1.11,1.11,0,0,1,.23-.52H166c-.77-.11-1.34-.64-1.26-1.18S165.54,269.21,166.31,269.32Z" style="fill:#fff"></path><path d="M172.25,274.42a1.13,1.13,0,0,1-.23-.81c.12-.85,1.33-1.38,2.69-1.18s2.38,1,2.26,1.88a.45.45,0,0,1,0,.11,3.49,3.49,0,0,1,.91,0c1.36.19,2.38,1,2.25,1.88s-1.32,1.38-2.69,1.18a3.5,3.5,0,0,1-1.55-.6,2.59,2.59,0,0,1-1.84.36c-1.13-.16-2-.87-1.87-1.57-.57-.08-1-.43-.94-.78S171.72,274.37,172.25,274.42Z" style="fill:#fff"></path><path d="M187.51,274.26a.83.83,0,0,0,.2-.59c-.06-.63-.93-1.06-1.94-1S184,273.39,184,274c0,0,0,.05,0,.08a3,3,0,0,0-.67,0c-1,.1-1.78.68-1.72,1.31s.93,1.06,1.94,1a2.49,2.49,0,0,0,1.16-.39,1.91,1.91,0,0,0,1.34.33c.84-.08,1.49-.57,1.44-1.09.42,0,.74-.28.71-.54S187.91,274.24,187.51,274.26Z" style="fill:#fff"></path><path d="M165.07,275.88a.62.62,0,0,1,.06.44c-.14.43-.81.61-1.51.39s-1.16-.74-1-1.17l0-.05a2,2,0,0,1-.47-.09c-.7-.22-1.16-.74-1-1.17s.81-.61,1.51-.4a1.77,1.77,0,0,1,.76.45,1.37,1.37,0,0,1,1,0c.58.18,1,.62.85,1,.29.09.48.31.43.49S165.35,276,165.07,275.88Z" style="fill:#fff"></path><path d="M182.89,270.82a.79.79,0,0,0-.09-.57c-.33-.49-1.23-.46-2,.06s-1.17,1.33-.85,1.82l.06.05a2.66,2.66,0,0,0-.56.28c-.79.52-1.16,1.33-.84,1.82s1.22.46,2-.06a2.41,2.41,0,0,0,.78-.82,1.75,1.75,0,0,0,1.24-.31c.65-.44,1-1.11.7-1.52.33-.21.48-.55.35-.75S183.21,270.63,182.89,270.82Z" style="fill:#fff"></path><path d="M178.91,278.61a.79.79,0,0,0,.24-.52c0-.58-.74-1.07-1.68-1.09s-1.72.43-1.73,1a.11.11,0,0,0,0,.08,2.44,2.44,0,0,0-.62-.09c-.94,0-1.72.43-1.73,1s.74,1.07,1.69,1.09a2.39,2.39,0,0,0,1.11-.23,1.73,1.73,0,0,0,1.19.45c.79,0,1.43-.37,1.44-.85.39,0,.72-.18.72-.42S179.27,278.64,178.91,278.61Z" style="fill:#fff"></path><path d="M178.2,271.68a1,1,0,0,1,.05.71c-.25.68-1.34.9-2.43.5s-1.78-1.28-1.53-1.95l0-.08a3,3,0,0,1-.74-.18c-1.09-.4-1.78-1.27-1.53-1.95s1.34-.89,2.43-.49a2.94,2.94,0,0,1,1.17.76,2.16,2.16,0,0,1,1.58,0c.91.33,1.47,1.06,1.27,1.62.45.16.74.53.63.81S178.63,271.81,178.2,271.68Z" style="fill:#fff"></path></g></svg>