<?xml version="1.0" encoding="UTF-8"?>
<!DOCTYPE svg PUBLIC "-//W3C//DTD SVG 1.1//EN" "http://www.w3.org/Graphics/SVG/1.1/DTD/svg11.dtd">
<svg xmlns="http://www.w3.org/2000/svg" version="1.1" width="512px" height="512px" style="shape-rendering:geometricPrecision; text-rendering:geometricPrecision; image-rendering:optimizeQuality; fill-rule:evenodd; clip-rule:evenodd" xmlns:xlink="http://www.w3.org/1999/xlink">
<g><path style="opacity:0.954" fill="#000000" d="M 236.5,-0.5 C 249.167,-0.5 261.833,-0.5 274.5,-0.5C 337.394,9.03833 382.227,42.705 409,100.5C 420.374,130.82 424.54,162.153 421.5,194.5C 446.883,192.425 465.05,202.758 476,225.5C 483.439,247.836 478.605,267.003 461.5,283C 451.212,290.929 439.545,294.763 426.5,294.5C 423.565,317.603 410.565,331.103 387.5,335C 374.504,335.5 361.504,335.667 348.5,335.5C 364.167,387.5 379.833,439.5 395.5,491.5C 406.603,491.046 417.603,491.546 428.5,493C 434.279,499.933 433.612,506.099 426.5,511.5C 312.5,511.5 198.5,511.5 84.5,511.5C 77.3881,506.099 76.7214,499.933 82.5,493C 93.3971,491.546 104.397,491.046 115.5,491.5C 131.167,439.5 146.833,387.5 162.5,335.5C 149.496,335.667 136.496,335.5 123.5,335C 100.435,331.103 87.4349,317.603 84.5,294.5C 52.3156,292.814 34.6489,275.981 31.5,244C 33.6036,217.903 47.2703,201.57 72.5,195C 78.1569,194.501 83.8236,194.334 89.5,194.5C 82.7724,133.495 101.439,81.995 145.5,40C 171.939,17.7809 202.273,4.2809 236.5,-0.5 Z M 254.5,19.5 C 320.586,22.7875 366.419,54.7875 392,115.5C 396.198,127.157 398.865,139.157 400,151.5C 400.5,165.829 400.667,180.163 400.5,194.5C 377.833,194.5 355.167,194.5 332.5,194.5C 332.893,175.133 332.393,155.8 331,136.5C 321.164,97.1659 295.997,76.1659 255.5,73.5C 215.003,76.1659 189.836,97.1659 180,136.5C 178.607,155.8 178.107,175.133 178.5,194.5C 155.833,194.5 133.167,194.5 110.5,194.5C 104.803,147.591 116.636,105.925 146,69.5C 175.271,37.7801 211.437,21.1134 254.5,19.5 Z M 250.5,94.5 C 285.038,95.2095 305.205,112.543 311,146.5C 311.5,162.497 311.667,178.497 311.5,194.5C 274.167,194.5 236.833,194.5 199.5,194.5C 199.333,178.497 199.5,162.497 200,146.5C 204.553,117.115 221.386,99.7817 250.5,94.5 Z M 75.5,215.5 C 195.5,215.333 315.5,215.5 435.5,216C 454.9,222.634 461.734,235.801 456,255.5C 451.354,265.577 443.52,271.41 432.5,273C 314.5,273.667 196.5,273.667 78.5,273C 62.4755,269.974 53.8089,260.307 52.5,244C 54.1305,229.544 61.7971,220.044 75.5,215.5 Z M 105.5,294.5 C 205.5,294.5 305.5,294.5 405.5,294.5C 403.316,305.029 396.983,311.529 386.5,314C 299.167,314.667 211.833,314.667 124.5,314C 113.932,311.599 107.599,305.099 105.5,294.5 Z M 184.5,335.5 C 231.833,335.5 279.167,335.5 326.5,335.5C 342.167,387.5 357.833,439.5 373.5,491.5C 294.833,491.5 216.167,491.5 137.5,491.5C 153.167,439.5 168.833,387.5 184.5,335.5 Z"/></g>
<g><path style="opacity:0.913" fill="#000000" d="M 232.5,143.5 C 239.247,142.566 243.747,145.232 246,151.5C 246.87,157.917 246.536,164.251 245,170.5C 241.562,175.081 237.062,176.581 231.5,175C 229,173.833 227.167,172 226,169.5C 225.333,163.167 225.333,156.833 226,150.5C 227.018,146.985 229.185,144.652 232.5,143.5 Z"/></g>
<g><path style="opacity:0.913" fill="#000000" d="M 272.5,143.5 C 278.425,142.875 282.591,145.208 285,150.5C 285.667,156.833 285.667,163.167 285,169.5C 281.252,175.542 276.085,177.042 269.5,174C 267.19,172.363 265.69,170.196 265,167.5C 264.13,161.083 264.464,154.749 266,148.5C 267.805,146.174 269.972,144.508 272.5,143.5 Z"/></g>
<g><path style="opacity:0.921" fill="#000000" d="M 93.5,233.5 C 101.917,233.094 110.251,233.594 118.5,235C 123.594,239.205 124.76,244.372 122,250.5C 120.786,252.049 119.286,253.215 117.5,254C 108.065,254.945 98.7321,254.611 89.5,253C 83.2159,244.781 84.5492,238.281 93.5,233.5 Z"/></g>
<g><path style="opacity:0.921" fill="#000000" d="M 168.5,233.5 C 176.174,233.334 183.841,233.5 191.5,234C 198.494,237.154 200.661,242.321 198,249.5C 196.457,251.378 194.624,252.878 192.5,254C 183.398,254.942 174.398,254.609 165.5,253C 158.557,245.316 159.557,238.816 168.5,233.5 Z"/></g>
<g><path style="opacity:0.919" fill="#000000" d="M 244.5,233.5 C 252.917,233.094 261.251,233.594 269.5,235C 274.596,239.248 275.763,244.415 273,250.5C 271.786,252.049 270.286,253.215 268.5,254C 259.065,254.945 249.732,254.611 240.5,253C 234.243,244.857 235.576,238.357 244.5,233.5 Z"/></g>
<g><path style="opacity:0.921" fill="#000000" d="M 319.5,233.5 C 327.174,233.334 334.841,233.5 342.5,234C 349.344,237.196 351.51,242.362 349,249.5C 347.457,251.378 345.624,252.878 343.5,254C 334.398,254.942 325.398,254.609 316.5,253C 309.285,245.24 310.285,238.74 319.5,233.5 Z"/></g>
<g><path style="opacity:0.921" fill="#000000" d="M 395.5,233.5 C 403.917,233.094 412.251,233.594 420.5,235C 427.346,241.736 427.013,248.07 419.5,254C 410.065,254.945 400.732,254.611 391.5,253C 386.582,247.808 386.248,242.308 390.5,236.5C 392.145,235.304 393.811,234.304 395.5,233.5 Z"/></g>
</svg>
