<svg width="29" height="28" viewBox="0 0 29 28" fill="none" xmlns="http://www.w3.org/2000/svg">
    <path d="M9.8335 2.33325V5.83325M19.1668 2.33325V5.83325" stroke="#EF4444" stroke-width="1.5" stroke-miterlimit="10" stroke-linecap="round" stroke-linejoin="round"/>
    <path d="M26.1667 25.6667L25 24.5M21.7333 24.9667C22.7235 24.9667 23.6731 24.5733 24.3732 23.8732C25.0733 23.1731 25.4667 22.2235 25.4667 21.2333C25.4667 20.2432 25.0733 19.2936 24.3732 18.5935C23.6731 17.8933 22.7235 17.5 21.7333 17.5C20.7432 17.5 19.7936 17.8933 19.0935 18.5935C18.3933 19.2936 18 20.2432 18 21.2333C18 22.2235 18.3933 23.1731 19.0935 23.8732C19.7936 24.5733 20.7432 24.9667 21.7333 24.9667Z" stroke="#EF4444" stroke-width="1.5" stroke-linecap="round" stroke-linejoin="round"/>
    <path d="M4.58333 10.6049H24.4167M16.0983 25.6666H9.83333C5.75 25.6666 4 23.3333 4 19.8333V9.91659C4 6.41659 5.75 4.08325 9.83333 4.08325H19.1667C23.25 4.08325 25 6.41659 25 9.91659V15.1666" stroke="#EF4444" stroke-width="1.5" stroke-miterlimit="10" stroke-linecap="round" stroke-linejoin="round"/>
    <path d="M14.4941 15.9834H14.5058M10.1763 15.9834H10.1879M10.1763 19.4834H10.1879" stroke="#EF4444" stroke-width="2" stroke-linecap="round" stroke-linejoin="round"/>
</svg>
