<?xml version="1.0" encoding="UTF-8"?>
<!DOCTYPE svg PUBLIC "-//W3C//DTD SVG 1.1//EN" "http://www.w3.org/Graphics/SVG/1.1/DTD/svg11.dtd">
<svg xmlns="http://www.w3.org/2000/svg" version="1.1" width="512px" height="512px" style="shape-rendering:geometricPrecision; text-rendering:geometricPrecision; image-rendering:optimizeQuality; fill-rule:evenodd; clip-rule:evenodd" xmlns:xlink="http://www.w3.org/1999/xlink">
<g><path style="opacity:0.904" fill="#000000" d="M 193.5,39.5 C 197.426,39.0466 200.592,40.3799 203,43.5C 207.369,53.6143 211.536,63.781 215.5,74C 213.944,81.1048 209.611,83.4381 202.5,81C 196.305,70.4368 191.305,59.2701 187.5,47.5C 188.075,43.6508 190.075,40.9842 193.5,39.5 Z"/></g>
<g><path style="opacity:0.909" fill="#000000" d="M 258.5,39.5 C 266.614,38.1209 270.447,41.4543 270,49.5C 266.333,58.8333 262.667,68.1667 259,77.5C 254.62,82.3433 249.954,82.6767 245,78.5C 244.399,76.8632 243.899,75.1966 243.5,73.5C 247.053,63.3943 250.886,53.3943 255,43.5C 256.032,41.9733 257.199,40.64 258.5,39.5 Z"/></g>
<g><path style="opacity:0.906" fill="#000000" d="M 145.5,87.5 C 148.187,87.3359 150.854,87.5026 153.5,88C 162.5,91.6667 171.5,95.3333 180.5,99C 184.771,104.078 184.437,108.745 179.5,113C 176.833,113.667 174.167,113.667 171.5,113C 162.5,109.333 153.5,105.667 144.5,102C 140.285,96.7195 140.618,91.8862 145.5,87.5 Z"/></g>
<g><path style="opacity:0.93" fill="#000000" d="M 511.5,237.5 C 511.5,242.833 511.5,248.167 511.5,253.5C 505.762,269.203 494.429,276.536 477.5,275.5C 464.495,334.52 451.329,393.52 438,452.5C 433.91,467.589 424.077,474.422 408.5,473C 351.695,463.311 295.028,452.977 238.5,442C 229.904,436.98 225.237,429.48 224.5,419.5C 230.374,377.218 235.541,334.884 240,292.5C 209.109,314.39 177.942,335.89 146.5,357C 135.156,360.29 125.656,357.456 118,348.5C 99.6092,322.441 81.6092,296.108 64,269.5C 60.8106,258.756 63.3106,249.589 71.5,242C 110.167,215 148.833,188 187.5,161C 204.356,154.43 216.356,159.43 223.5,176C 221.992,182.425 217.992,184.758 211.5,183C 208.887,180.387 206.221,177.721 203.5,175C 202.128,174.598 200.795,174.098 199.5,173.5C 159.265,200.539 119.431,228.206 80,256.5C 78.1497,259.537 78.1497,262.537 80,265.5C 97,289.833 114,314.167 131,338.5C 134.237,342.249 138.07,343.082 142.5,341C 176,317.5 209.5,294 243,270.5C 244.995,259.211 246.828,247.878 248.5,236.5C 225.683,226.559 219.517,210.225 230,187.5C 234.859,181.319 241.026,176.986 248.5,174.5C 253.696,156.961 265.363,147.628 283.5,146.5C 287.711,126.791 299.877,116.124 320,114.5C 325.136,114.856 330.136,115.856 335,117.5C 346.794,102.402 361.961,97.4019 380.5,102.5C 401.353,89.6751 419.853,92.3417 436,110.5C 440.294,117.214 442.461,124.547 442.5,132.5C 464.157,130.993 477.99,140.659 484,161.5C 484.93,168.781 484.43,175.948 482.5,183C 493.964,192.363 499.464,204.529 499,219.5C 504.943,224.426 509.11,230.426 511.5,237.5 Z M 400.5,110.5 C 415.388,110.227 424.055,117.393 426.5,132C 425.889,136.277 424.889,140.444 423.5,144.5C 424.408,150.959 428.074,153.459 434.5,152C 449.581,144.472 460.748,148.305 468,163.5C 469.405,170.717 468.071,177.384 464,183.5C 463.107,186.916 463.607,190.083 465.5,193C 474.912,196.245 480.579,202.745 482.5,212.5C 480.579,213.641 478.579,213.808 476.5,213C 406.523,200.538 336.523,188.205 266.5,176C 266.043,175.586 265.709,175.086 265.5,174.5C 268.42,169.081 272.753,165.247 278.5,163C 284.516,162.502 290.516,161.835 296.5,161C 297.46,159.581 298.293,158.081 299,156.5C 298.75,139.752 306.917,131.252 323.5,131C 328.213,132.19 332.547,134.19 336.5,137C 339.961,137.874 342.961,137.04 345.5,134.5C 351.857,117.818 363.19,112.985 379.5,120C 381.5,120.667 383.5,120.667 385.5,120C 389.955,115.783 394.955,112.617 400.5,110.5 Z M 251.5,190.5 C 329.603,203.287 407.603,216.787 485.5,231C 494.193,234.721 497.359,241.221 495,250.5C 490.446,258.579 483.613,261.413 474.5,259C 400.853,245.892 327.186,232.892 253.5,220C 241.733,216.301 238.233,208.801 243,197.5C 245.441,194.546 248.275,192.213 251.5,190.5 Z M 171.5,224.5 C 181.217,224.374 187.383,229.041 190,238.5C 191.18,251.785 188.847,264.452 183,276.5C 172.117,278.085 161.283,277.585 150.5,275C 143.457,272.621 138.29,268.121 135,261.5C 134.042,248.213 140.209,242.546 153.5,244.5C 155.634,244.485 157.634,243.985 159.5,243C 161.226,238.937 162.726,234.771 164,230.5C 166.114,227.879 168.614,225.879 171.5,224.5 Z M 263.5,238.5 C 272.876,239.674 282.209,241.174 291.5,243C 288.699,260.1 286.033,277.267 283.5,294.5C 284.697,301.273 288.697,303.773 295.5,302C 296.667,300.833 297.833,299.667 299,298.5C 301.618,280.791 304.451,263.125 307.5,245.5C 315.389,247.478 323.389,248.811 331.5,249.5C 321.5,312.165 311.5,374.831 301.5,437.5C 296.16,436.777 290.827,435.943 285.5,435C 283.598,434.801 282.098,433.967 281,432.5C 280.333,429.167 280.333,425.833 281,422.5C 285.56,390.246 290.393,358.079 295.5,326C 293.701,318.811 289.368,316.478 282.5,319C 280.232,320.558 279.066,322.724 279,325.5C 273.533,360.771 268.533,396.105 264,431.5C 257.763,430.376 251.597,428.876 245.5,427C 242.572,425.082 240.906,422.415 240.5,419C 248.777,358.95 256.444,298.783 263.5,238.5 Z M 347.5,252.5 C 357.082,254.543 366.749,256.376 376.5,258C 377.081,258.893 377.415,259.893 377.5,261C 371.167,294.667 364.833,328.333 358.5,362C 360.223,369.238 364.556,371.571 371.5,369C 373.317,367.2 374.484,365.034 375,362.5C 381.234,328.833 387.4,295.167 393.5,261.5C 401.187,262.448 408.854,263.614 416.5,265C 417.516,265.519 418.182,266.353 418.5,267.5C 406.319,327.574 393.819,387.574 381,447.5C 380.059,449.061 378.892,450.395 377.5,451.5C 371.032,450.308 364.698,448.808 358.5,447C 362.295,429.027 365.961,411.027 369.5,393C 368.689,388.189 365.856,385.356 361,384.5C 358.113,384.903 355.779,386.236 354,388.5C 350.333,406.833 346.667,425.167 343,443.5C 341.938,444.097 340.772,444.43 339.5,444.5C 332.853,443.225 326.186,442.059 319.5,441C 317.543,438.879 317.043,436.379 318,433.5C 328.052,373.19 337.885,312.856 347.5,252.5 Z M 434.5,268.5 C 443.485,269.942 452.485,271.275 461.5,272.5C 448.783,331.584 435.616,390.584 422,449.5C 420.544,454.117 417.377,456.784 412.5,457.5C 406.795,456.526 401.128,455.359 395.5,454C 409.325,392.377 422.325,330.544 434.5,268.5 Z"/></g>
<g><path style="opacity:0.921" fill="#000000" d="M -0.5,268.5 C -0.5,265.833 -0.5,263.167 -0.5,260.5C 74.9869,207.196 150.654,154.03 226.5,101C 230.505,99.9019 234.005,100.735 237,103.5C 244.667,114.5 252.333,125.5 260,136.5C 260.527,143.465 258.693,149.799 254.5,155.5C 247.426,159.127 243.092,157.127 241.5,149.5C 241.552,146.678 242.219,144.011 243.5,141.5C 238.528,134.028 233.361,126.695 228,119.5C 158.079,168.544 88.2457,217.71 18.5,267C 23.5,274 28.5,281 33.5,288C 62.303,287.807 82.803,300.64 95,326.5C 101.09,342.404 100.923,358.237 94.5,374C 99.2615,381.765 104.428,389.265 110,396.5C 143.833,372.667 177.667,348.833 211.5,325C 221.522,320.424 226.022,323.59 225,334.5C 224.626,335.416 224.126,336.25 223.5,337C 186.167,363 148.833,389 111.5,415C 107.882,415.966 104.549,415.466 101.5,413.5C 92.3146,401.33 83.9813,388.663 76.5,375.5C 86.9343,355.785 85.4343,337.118 72,319.5C 59.0625,307.048 43.5625,301.881 25.5,304C 16.69,292.188 8.0233,280.355 -0.5,268.5 Z"/></g>
<g><path style="opacity:0.909" fill="#000000" d="M 345.5,140.5 C 362.97,138.48 371.803,146.147 372,163.5C 368.929,168.299 364.762,169.465 359.5,167C 357.226,164.656 356.059,161.822 356,158.5C 353.925,156.352 351.592,156.018 349,157.5C 348.556,164.951 344.723,168.451 337.5,168C 335.714,167.215 334.214,166.049 333,164.5C 331.128,153.24 335.295,145.24 345.5,140.5 Z"/></g>
<g><path style="opacity:0.918" fill="#000000" d="M 406.5,160.5 C 426.18,158.032 437.18,166.532 439.5,186C 440.084,194.746 436.084,198.079 427.5,196C 425.951,194.786 424.785,193.286 424,191.5C 424.833,179.649 419.666,175.149 408.5,178C 405.833,182 403.167,186 400.5,190C 393.511,192.166 389.511,189.666 388.5,182.5C 390.505,171.834 396.505,164.501 406.5,160.5 Z"/></g>
<g><path style="opacity:0.928" fill="#000000" d="M 169.5,208.5 C 189.353,207.857 201.52,217.19 206,236.5C 207.027,246.295 206.36,255.962 204,265.5C 200.875,274.884 197.375,284.051 193.5,293C 192.5,293.333 191.5,293.667 190.5,294C 179.53,293.787 168.53,293.454 157.5,293C 138.706,291.371 125.873,281.871 119,264.5C 116.562,242.862 126.062,230.362 147.5,227C 152.026,217.293 159.359,211.126 169.5,208.5 Z M 171.5,224.5 C 168.614,225.879 166.114,227.879 164,230.5C 162.726,234.771 161.226,238.937 159.5,243C 157.634,243.985 155.634,244.485 153.5,244.5C 140.209,242.546 134.042,248.213 135,261.5C 138.29,268.121 143.457,272.621 150.5,275C 161.283,277.585 172.117,278.085 183,276.5C 188.847,264.452 191.18,251.785 190,238.5C 187.383,229.041 181.217,224.374 171.5,224.5 Z"/></g>
</svg>
