<?xml version="1.0" encoding="UTF-8"?>
<!DOCTYPE svg PUBLIC "-//W3C//DTD SVG 1.1//EN" "http://www.w3.org/Graphics/SVG/1.1/DTD/svg11.dtd">
<svg xmlns="http://www.w3.org/2000/svg" version="1.1" width="512px" height="512px" style="shape-rendering:geometricPrecision; text-rendering:geometricPrecision; image-rendering:optimizeQuality; fill-rule:evenodd; clip-rule:evenodd" xmlns:xlink="http://www.w3.org/1999/xlink">
<g><path style="opacity:0.946" fill="#000000" d="M 462.5,-0.5 C 466.833,-0.5 471.167,-0.5 475.5,-0.5C 480.143,1.97883 483.643,5.64549 486,10.5C 490.895,24.1623 493.895,38.1623 495,52.5C 493.167,55.6667 490.667,58.1667 487.5,60C 467.5,65.3333 447.5,70.6667 427.5,76C 417.526,78.0267 413.693,74.1934 416,64.5C 419.603,61.5466 423.77,59.7133 428.5,59C 414.427,51.8813 400.594,44.3813 387,36.5C 368.161,41.7519 349.328,47.0852 330.5,52.5C 343.631,60.4527 357.131,67.7861 371,74.5C 376,73.1667 381,71.8333 386,70.5C 393.242,72.2402 395.575,76.5736 393,83.5C 392.097,84.7014 390.931,85.5348 389.5,86C 304.167,109 218.833,132 133.5,155C 134.5,156 135.5,157 136.5,158C 258.5,158.333 380.5,158.667 502.5,159C 506.595,160.268 509.595,162.768 511.5,166.5C 511.5,181.167 511.5,195.833 511.5,210.5C 508.404,216.258 503.738,220.258 497.5,222.5C 496.667,280.83 496.167,339.164 496,397.5C 493.962,402.102 490.462,403.936 485.5,403C 483.333,402.167 481.833,400.667 481,398.5C 480.5,339.834 480.333,281.168 480.5,222.5C 371.499,222.333 262.499,222.5 153.5,223C 149.971,226.933 145.637,229.6 140.5,231C 126.833,231.667 113.167,231.667 99.5,231C 92.5994,225.58 92.9327,220.58 100.5,216C 112.833,215.667 125.167,215.333 137.5,215C 143.498,211.16 145.831,205.66 144.5,198.5C 144.552,194.413 144.052,190.413 143,186.5C 119.5,164.333 96,142.167 72.5,120C 69.7536,118.25 66.7536,117.25 63.5,117C 50.8333,116.333 38.1667,116.333 25.5,117C 21.0346,117.313 17.8679,119.479 16,123.5C 14.8773,137.79 14.3773,152.123 14.5,166.5C 14.3773,180.877 14.8773,195.21 16,209.5C 17.2506,212.381 19.4173,214.214 22.5,215C 38.5,215.333 54.5,215.667 70.5,216C 75.0685,218.541 76.5685,222.375 75,227.5C 73.8333,228.667 72.6667,229.833 71.5,231C 61.8391,231.5 52.1724,231.666 42.5,231.5C 42.3333,315.501 42.5,399.501 43,483.5C 45.6119,491.442 51.1119,495.608 59.5,496C 194.167,496.667 328.833,496.667 463.5,496C 470.547,495.288 475.714,491.788 479,485.5C 480.284,465.885 480.951,446.218 481,426.5C 484.42,422.247 488.587,421.413 493.5,424C 494.893,425.171 495.727,426.671 496,428.5C 496.667,446.833 496.667,465.167 496,483.5C 493.127,497.645 484.96,506.978 471.5,511.5C 331.5,511.5 191.5,511.5 51.5,511.5C 38.8584,507.691 30.6917,499.357 27,486.5C 26.5,401.501 26.3333,316.501 26.5,231.5C 13.0642,231.296 4.06421,224.962 -0.5,212.5C -0.5,181.833 -0.5,151.167 -0.5,120.5C 2.65054,111.184 8.98387,105.017 18.5,102C 36.1667,101.333 53.8333,101.333 71.5,102C 73.1368,102.601 74.8034,103.101 76.5,103.5C 205.371,69.1179 334.038,34.4512 462.5,-0.5 Z M 465.5,15.5 C 467.467,15.2606 469.301,15.5939 471,16.5C 473.703,25.6094 476.203,34.7761 478.5,44C 478.355,44.772 478.022,45.4387 477.5,46C 468.302,48.9687 458.968,50.9687 449.5,52C 436.341,45.2544 423.341,38.2544 410.5,31C 428.984,25.9657 447.317,20.799 465.5,15.5 Z M 304.5,58.5 C 318.719,65.2776 332.719,72.6109 346.5,80.5C 327.687,85.9115 308.854,91.2448 290,96.5C 276.406,88.6187 262.573,81.1187 248.5,74C 267.372,69.1184 286.039,63.9517 304.5,58.5 Z M 222.5,80.5 C 224.199,80.3398 225.866,80.5065 227.5,81C 240.341,88.2544 253.341,95.2544 266.5,102C 247.786,107.554 228.952,112.721 210,117.5C 196.148,110.49 182.314,103.323 168.5,96C 186.606,90.8106 204.606,85.644 222.5,80.5 Z M 144.5,101.5 C 158.357,109.173 172.357,116.673 186.5,124C 164.5,129.833 142.5,135.667 120.5,141.5C 110.642,133.71 101.309,125.21 92.5,116C 109.951,111.141 127.284,106.307 144.5,101.5 Z M 154.5,175.5 C 166.993,174.34 179.66,174.173 192.5,175C 182,184.833 171.5,194.667 161,204.5C 160.667,198.5 160.333,192.5 160,186.5C 159.19,182.213 157.357,178.546 154.5,175.5 Z M 216.5,174.5 C 236.169,174.333 255.836,174.5 275.5,175C 264.5,185.333 253.5,195.667 242.5,206C 222.833,206.667 203.167,206.667 183.5,206C 194.698,195.633 205.698,185.133 216.5,174.5 Z M 299.5,174.5 C 319.503,174.333 339.503,174.5 359.5,175C 348.5,185.333 337.5,195.667 326.5,206C 306.5,206.667 286.5,206.667 266.5,206C 277.698,195.633 288.698,185.133 299.5,174.5 Z M 383.5,174.5 C 403.169,174.333 422.836,174.5 442.5,175C 431.5,185.333 420.5,195.667 409.5,206C 389.833,206.667 370.167,206.667 350.5,206C 361.698,195.633 372.698,185.133 383.5,174.5 Z M 466.5,174.5 C 476.5,174.5 486.5,174.5 496.5,174.5C 496.666,184.172 496.5,193.839 496,203.5C 495.626,204.416 495.126,205.25 494.5,206C 474.167,206.667 453.833,206.667 433.5,206C 444.698,195.633 455.698,185.133 466.5,174.5 Z"/></g>
<g><path style="opacity:0.844" fill="#000000" d="M 35.5,132.5 C 43.6577,131.823 47.1577,135.49 46,143.5C 43.7742,147.861 40.2742,149.361 35.5,148C 31.1392,145.774 29.6392,142.274 31,137.5C 32.025,135.313 33.525,133.646 35.5,132.5 Z"/></g>
<g><path style="opacity:0.857" fill="#000000" d="M 34.5,184.5 C 45.055,183.871 48.3883,188.371 44.5,198C 37.2557,202.045 32.589,200.045 30.5,192C 30.9274,188.977 32.2607,186.477 34.5,184.5 Z"/></g>
<g><path style="opacity:0.865" fill="#000000" d="M 117.5,184.5 C 124.067,183.097 127.733,185.597 128.5,192C 128.483,197.018 125.983,199.851 121,200.5C 113.758,198.76 111.425,194.426 114,187.5C 115.145,186.364 116.312,185.364 117.5,184.5 Z"/></g>
<g><path style="opacity:0.953" fill="#000000" d="M 69.5,260.5 C 197.5,260.333 325.5,260.5 453.5,261C 458.069,263.541 459.569,267.375 458,272.5C 456.833,273.667 455.667,274.833 454.5,276C 425.169,276.5 395.835,276.667 366.5,276.5C 366.5,298.167 366.5,319.833 366.5,341.5C 394.835,341.333 423.169,341.5 451.5,342C 457.653,343.465 459.82,347.298 458,353.5C 457.5,355.333 456.333,356.5 454.5,357C 413.501,357.5 372.501,357.667 331.5,357.5C 331.5,385.833 331.5,414.167 331.5,442.5C 372.501,442.333 413.501,442.5 454.5,443C 457.366,444.393 458.699,446.726 458.5,450C 458.699,453.274 457.366,455.607 454.5,457C 325.5,457.667 196.5,457.667 67.5,457C 62.1667,452.333 62.1667,447.667 67.5,443C 150.166,442.5 232.833,442.333 315.5,442.5C 315.5,430.833 315.5,419.167 315.5,407.5C 232.833,407.667 150.166,407.5 67.5,407C 61.3445,399.954 62.6778,394.954 71.5,392C 152.833,391.5 234.166,391.333 315.5,391.5C 315.5,380.167 315.5,368.833 315.5,357.5C 291.831,357.667 268.164,357.5 244.5,357C 239.188,352.239 239.188,347.572 244.5,343C 280.105,341.52 315.772,341.02 351.5,341.5C 351.5,319.833 351.5,298.167 351.5,276.5C 291.5,276.5 231.5,276.5 171.5,276.5C 171.5,298.167 171.5,319.833 171.5,341.5C 186.905,341.048 202.238,341.548 217.5,343C 222.818,347.62 222.818,352.287 217.5,357C 167.5,357.667 117.5,357.667 67.5,357C 61.5248,350.571 62.5248,345.571 70.5,342C 98.8314,341.5 127.165,341.333 155.5,341.5C 155.5,319.833 155.5,298.167 155.5,276.5C 126.498,276.667 97.4981,276.5 68.5,276C 61.68,270.426 62.0134,265.259 69.5,260.5 Z"/></g>
<g><path style="opacity:0.917" fill="#000000" d="M 190.5,289.5 C 203.837,289.333 217.171,289.5 230.5,290C 235.224,292.435 236.724,296.269 235,301.5C 234.167,303 233,304.167 231.5,305C 217.833,305.667 204.167,305.667 190.5,305C 185.465,301.987 184.298,297.82 187,292.5C 188.145,291.364 189.312,290.364 190.5,289.5 Z"/></g>
<g><path style="opacity:0.917" fill="#000000" d="M 386.5,289.5 C 399.837,289.333 413.171,289.5 426.5,290C 430.861,292.226 432.361,295.726 431,300.5C 430.167,302.667 428.667,304.167 426.5,305C 412.833,305.667 399.167,305.667 385.5,305C 381.723,302.089 380.556,298.256 382,293.5C 383.397,291.93 384.897,290.596 386.5,289.5 Z"/></g>
<g><path style="opacity:0.918" fill="#000000" d="M 349.5,373.5 C 363.504,373.333 377.504,373.5 391.5,374C 395.982,377.705 396.649,382.038 393.5,387C 391.913,387.862 390.246,388.529 388.5,389C 376.167,389.667 363.833,389.667 351.5,389C 345.842,387.171 344.008,383.337 346,377.5C 346.69,375.65 347.856,374.316 349.5,373.5 Z"/></g>
</svg>
