<?xml version="1.0" encoding="UTF-8"?>
<!DOCTYPE svg PUBLIC "-//W3C//DTD SVG 1.1//EN" "http://www.w3.org/Graphics/SVG/1.1/DTD/svg11.dtd">
<svg xmlns="http://www.w3.org/2000/svg" version="1.1" width="512px" height="512px" style="shape-rendering:geometricPrecision; text-rendering:geometricPrecision; image-rendering:optimizeQuality; fill-rule:evenodd; clip-rule:evenodd" xmlns:xlink="http://www.w3.org/1999/xlink">
<g><path style="opacity:0.957" fill="#000000" d="M 237.5,-0.5 C 249.5,-0.5 261.5,-0.5 273.5,-0.5C 342.767,10.9286 386.601,50.5953 405,118.5C 406.434,125.102 407.434,131.768 408,138.5C 408.5,154.83 408.667,171.163 408.5,187.5C 416.174,187.334 423.841,187.5 431.5,188C 434.381,189.251 436.214,191.417 437,194.5C 441.127,222.808 432.294,245.975 410.5,264C 397.563,272.755 383.229,277.089 367.5,277C 374.77,285.464 378.936,295.297 380,306.5C 380.667,337.5 380.667,368.5 380,399.5C 376.857,407.314 371.357,409.481 363.5,406C 361.951,404.786 360.785,403.286 360,401.5C 359.667,386.833 359.333,372.167 359,357.5C 340.565,370.493 320.732,372.993 299.5,365C 278.249,354.014 266.915,336.514 265.5,312.5C 266.186,299.269 270.52,287.436 278.5,277C 229.167,276.667 179.833,276.333 130.5,276C 97.6539,269.487 78.8206,249.654 74,216.5C 73.3333,209.167 73.3333,201.833 74,194.5C 74.786,191.417 76.6193,189.251 79.5,188C 87.1594,187.5 94.8261,187.334 102.5,187.5C 102.333,171.163 102.5,154.83 103,138.5C 111.361,72.9262 146.527,28.7596 208.5,6C 218.173,3.2353 227.839,1.06863 237.5,-0.5 Z M 253.5,19.5 C 310.921,21.4749 352.087,48.1416 377,99.5C 382.372,112.322 385.539,125.656 386.5,139.5C 299.167,139.5 211.833,139.5 124.5,139.5C 128.951,97.4132 148.618,64.5798 183.5,41C 205.051,27.6186 228.384,20.4519 253.5,19.5 Z M 123.5,160.5 C 211.5,160.5 299.5,160.5 387.5,160.5C 387.5,169.5 387.5,178.5 387.5,187.5C 299.5,187.5 211.5,187.5 123.5,187.5C 123.5,178.5 123.5,169.5 123.5,160.5 Z M 94.5,207.5 C 201.833,207.5 309.167,207.5 416.5,207.5C 416.074,231.078 404.74,246.578 382.5,254C 340.212,255.156 297.878,255.656 255.5,255.5C 213.122,255.656 170.788,255.156 128.5,254C 106.26,246.578 94.9262,231.078 94.5,207.5 Z M 318.5,276.5 C 347.46,277.798 360.627,292.798 358,321.5C 350.963,341.609 336.796,350.442 315.5,348C 297.821,342.977 288.154,331.31 286.5,313C 288.867,293.471 299.534,281.304 318.5,276.5 Z"/></g>
<g><path style="opacity:0.945" fill="#000000" d="M 334.5,511.5 C 325.5,511.5 316.5,511.5 307.5,511.5C 287.881,508.024 270.547,499.691 255.5,486.5C 240.453,499.691 223.119,508.024 203.5,511.5C 194.5,511.5 185.5,511.5 176.5,511.5C 145.753,504.671 124.92,486.338 114,456.5C 110.333,448.5 106.667,440.5 103,432.5C 101.455,424.235 104.789,419.568 113,418.5C 115.732,418.615 118.232,419.448 120.5,421C 128.472,429.211 138.138,432.211 149.5,430C 160.619,424.546 170.953,417.88 180.5,410C 199.087,396.067 219.087,393.734 240.5,403C 245.5,406.5 250.5,410 255.5,413.5C 262.968,407.205 271.301,402.371 280.5,399C 294.817,395.729 308.483,397.396 321.5,404C 331.344,410.755 341.01,417.755 350.5,425C 361.144,431.498 372.144,432.165 383.5,427C 386.887,423.947 390.553,421.28 394.5,419C 405,417.5 409.5,422 408,432.5C 400.721,449.724 392.388,466.391 383,482.5C 370.423,498.204 354.257,507.87 334.5,511.5 Z M 208.5,418.5 C 214.577,418.196 220.577,418.696 226.5,420C 234.443,424.944 242.109,430.277 249.5,436C 253.5,438 257.5,438 261.5,436C 268.891,430.277 276.557,424.944 284.5,420C 293.953,417.269 302.953,418.269 311.5,423C 322.892,431.391 334.559,439.391 346.5,447C 355.808,450.605 365.474,452.439 375.5,452.5C 365.428,476.942 347.262,489.942 321,491.5C 297.128,489.814 277.295,479.981 261.5,462C 257.5,460 253.5,460 249.5,462C 226.5,488.342 198.5,496.342 165.5,486C 151.241,478.409 141.241,467.076 135.5,452C 144.742,452.195 153.742,450.861 162.5,448C 175.352,440.409 187.685,432.076 199.5,423C 202.592,421.454 205.592,419.954 208.5,418.5 Z"/></g>
</svg>
