<svg width="48" height="48" viewBox="0 0 48 48" fill="none" xmlns="http://www.w3.org/2000/svg">
<path d="M42.6 24.46H35.64C33.68 24.46 31.94 25.54 31.06 27.3L29.38 30.62C28.98 31.42 28.18 31.92 27.3 31.92H20.74C20.12 31.92 19.24 31.78 18.66 30.62L16.98 27.32C16.5548 26.4686 15.9013 25.7522 15.0926 25.2507C14.2838 24.7492 13.3516 24.4824 12.4 24.48H5.4C4.62 24.48 4 25.1 4 25.88V32.4C4 39.66 8.36 44 15.64 44H32.4C39.26 44 43.48 40.24 44 33.56V25.86C44 25.1 43.38 24.46 42.6 24.46Z" fill="#EF4444"/>
<path d="M32.38 4H15.62C8.34 4 4 8.34 4 15.62V21.7C4.44 21.54 4.92 21.46 5.4 21.46H12.4C15.5 21.46 18.28 23.18 19.66 25.96L21.16 28.9H26.88L28.38 25.94C29.0508 24.5896 30.0864 23.4541 31.3696 22.6623C32.6528 21.8704 34.1322 21.4539 35.64 21.46H42.6C43.08 21.46 43.56 21.54 44 21.7V15.62C44 8.34 39.66 4 32.38 4ZM20.9 10.82H27.1C27.86 10.82 28.5 11.44 28.5 12.2C28.5 12.98 27.86 13.6 27.1 13.6H20.9C20.14 13.6 19.5 12.98 19.5 12.2C19.5053 11.8322 19.6551 11.4812 19.9171 11.223C20.179 10.9647 20.5321 10.82 20.9 10.82ZM28.66 19.18H19.34C18.58 19.18 17.96 18.56 17.96 17.8C17.96 17.02 18.58 16.4 19.34 16.4H28.66C29.42 16.4 30.04 17.02 30.04 17.8C30.04 18.56 29.42 19.18 28.66 19.18Z" fill="#EF4444"/>
</svg>
