<?xml version="1.0" encoding="UTF-8"?>
<!DOCTYPE svg PUBLIC "-//W3C//DTD SVG 1.1//EN" "http://www.w3.org/Graphics/SVG/1.1/DTD/svg11.dtd">
<svg xmlns="http://www.w3.org/2000/svg" version="1.1" width="512px" height="512px" style="shape-rendering:geometricPrecision; text-rendering:geometricPrecision; image-rendering:optimizeQuality; fill-rule:evenodd; clip-rule:evenodd" xmlns:xlink="http://www.w3.org/1999/xlink">
<g><path style="opacity:0.947" fill="#000000" d="M 212.5,-0.5 C 226.5,-0.5 240.5,-0.5 254.5,-0.5C 293.125,3.32007 328.625,15.9867 361,37.5C 363.656,44.1881 361.489,48.5214 354.5,50.5C 345.078,45.9546 335.744,41.1213 326.5,36C 248.678,2.32542 174.678,9.32542 104.5,57C 32.4311,114.173 4.26441,188.34 20,279.5C 38.2876,354.114 82.7876,406.281 153.5,436C 206.5,436.667 259.5,436.667 312.5,436C 382.931,405.562 427.431,353.062 446,278.5C 460.001,202.196 440.668,135.863 388,79.5C 382.667,74.8333 377.333,70.1667 372,65.5C 368.431,58.0152 370.597,53.6819 378.5,52.5C 381.229,52.2948 383.562,53.1282 385.5,55C 453.656,117.807 478.823,194.973 461,286.5C 454.351,315.136 442.684,341.469 426,365.5C 425.333,366.5 425.333,367.5 426,368.5C 433.365,375.53 440.365,382.864 447,390.5C 457.196,379.97 467.696,369.803 478.5,360C 471.987,353.787 465.82,347.287 460,340.5C 457.71,331.211 461.21,327.378 470.5,329C 479.613,338.113 488.779,347.279 498,356.5C 504.666,364.498 509.166,373.498 511.5,383.5C 511.5,390.833 511.5,398.167 511.5,405.5C 500.731,434.045 488.564,462.045 475,489.5C 465.717,501.053 453.883,508.386 439.5,511.5C 302.167,511.5 164.833,511.5 27.5,511.5C 25.2995,509.738 24.1328,507.404 24,504.5C 23.0446,482.783 23.3779,461.116 25,439.5C 25.8333,438.667 26.6667,437.833 27.5,437C 40.5,436.333 53.5,436.333 66.5,437C 70.5,441.667 70.5,446.333 66.5,451C 57.5062,451.5 48.5062,451.666 39.5,451.5C 39.5,466.5 39.5,481.5 39.5,496.5C 54.1667,496.5 68.8333,496.5 83.5,496.5C 83.0511,477.445 83.5511,458.445 85,439.5C 85.8333,438.667 86.6667,437.833 87.5,437C 97.1667,436.667 106.833,436.333 116.5,436C 48.2088,394.63 9.20883,334.13 -0.5,254.5C -0.5,240.167 -0.5,225.833 -0.5,211.5C 11.2608,120.243 58.9274,55.4096 142.5,17C 165.174,7.99813 188.507,2.1648 212.5,-0.5 Z M 232.5,74.5 C 250.579,75.0694 268.246,78.2361 285.5,84C 291.226,85.6966 296.559,88.1966 301.5,91.5C 288.399,114.77 269.732,131.937 245.5,143C 232.779,146.926 220.779,145.259 209.5,138C 190.594,126.261 175.594,110.761 164.5,91.5C 174.829,85.6732 185.829,81.5065 197.5,79C 209.204,76.5877 220.871,75.0877 232.5,74.5 Z M 98.5,116.5 C 100.199,116.34 101.866,116.506 103.5,117C 70.312,155.231 55.4786,199.731 59,250.5C 52.2225,242.849 48.5559,233.849 48,223.5C 46.4967,186.031 58.3301,153.531 83.5,126C 88.2596,122.296 93.2596,119.13 98.5,116.5 Z M 362.5,117.5 C 363.946,116.387 365.613,116.22 367.5,117C 381.944,123.778 392.778,134.278 400,148.5C 415.631,175.316 420.964,203.983 416,234.5C 414.548,240.741 411.548,246.075 407,250.5C 409.934,204.654 397.934,163.321 371,126.5C 368.613,123.043 365.78,120.043 362.5,117.5 Z M 346.5,123.5 C 380.968,160.307 395.301,203.973 389.5,254.5C 364.385,249.861 342.885,238.528 325,220.5C 316.843,211.361 313.509,200.694 315,188.5C 319.112,163.611 329.612,141.945 346.5,123.5 Z M 229.5,226.5 C 239.818,226.322 242.151,230.489 236.5,239C 226.102,239.471 223.768,235.305 229.5,226.5 Z M 134.5,295.5 C 145.948,294.99 157.281,295.823 168.5,298C 182.217,302.716 191.717,311.882 197,325.5C 205.16,345.784 207.994,366.784 205.5,388.5C 155.914,378.711 118.914,351.877 94.5,308C 99.94,304.284 105.94,301.618 112.5,300C 119.931,298.281 127.265,296.781 134.5,295.5 Z M 308.5,295.5 C 330.11,294.023 350.777,297.689 370.5,306.5C 371.314,308.952 370.814,311.285 369,313.5C 343.692,353.939 307.525,378.939 260.5,388.5C 257.001,360.821 262.501,335.155 277,311.5C 285.344,301.745 295.844,296.412 308.5,295.5 Z M 81.5,319.5 C 108.001,363.466 146.335,391.633 196.5,404C 187.08,407.806 177.413,408.473 167.5,406C 136.37,397.531 111.204,380.364 92,354.5C 84.4269,344.029 80.9269,332.363 81.5,319.5 Z M 383.5,319.5 C 385.259,330.127 383.092,340.127 377,349.5C 355.24,382.256 324.907,401.589 286,407.5C 280.209,407.677 274.709,406.51 269.5,404C 312.417,393.305 347.25,370.471 374,335.5C 377.441,330.276 380.608,324.943 383.5,319.5 Z M 488.5,372.5 C 491.69,376.214 493.857,380.547 495,385.5C 497.731,402.31 492.731,416.31 480,427.5C 473.585,418.414 466.418,409.914 458.5,402C 468.768,392.38 478.768,382.547 488.5,372.5 Z M 414.5,380.5 C 431.849,397.516 448.516,415.183 464.5,433.5C 464.291,434.086 463.957,434.586 463.5,435C 425.524,436.609 387.524,436.943 349.5,436C 374.747,421.707 396.414,403.207 414.5,380.5 Z M 475.5,447.5 C 476.043,447.56 476.376,447.893 476.5,448.5C 473.391,455.051 470.558,461.718 468,468.5C 466.086,473.335 463.419,477.669 460,481.5C 459.5,471.506 459.334,461.506 459.5,451.5C 465.256,451.394 470.589,450.061 475.5,447.5 Z M 99.5,451.5 C 114.167,451.5 128.833,451.5 143.5,451.5C 143.5,466.5 143.5,481.5 143.5,496.5C 128.833,496.5 114.167,496.5 99.5,496.5C 99.5,481.5 99.5,466.5 99.5,451.5 Z M 159.5,451.5 C 174.167,451.5 188.833,451.5 203.5,451.5C 203.5,466.5 203.5,481.5 203.5,496.5C 188.833,496.5 174.167,496.5 159.5,496.5C 159.5,481.5 159.5,466.5 159.5,451.5 Z M 219.5,451.5 C 234.167,451.5 248.833,451.5 263.5,451.5C 263.5,466.5 263.5,481.5 263.5,496.5C 248.833,496.5 234.167,496.5 219.5,496.5C 219.5,481.5 219.5,466.5 219.5,451.5 Z M 279.5,451.5 C 294.167,451.5 308.833,451.5 323.5,451.5C 323.5,466.5 323.5,481.5 323.5,496.5C 308.833,496.5 294.167,496.5 279.5,496.5C 279.5,481.5 279.5,466.5 279.5,451.5 Z M 339.5,451.5 C 354.167,451.5 368.833,451.5 383.5,451.5C 383.5,466.5 383.5,481.5 383.5,496.5C 368.833,496.5 354.167,496.5 339.5,496.5C 339.5,481.5 339.5,466.5 339.5,451.5 Z M 399.5,451.5 C 414.167,451.5 428.833,451.5 443.5,451.5C 443.833,465.516 443.499,479.516 442.5,493.5C 437.958,494.95 433.292,495.783 428.5,496C 418.839,496.5 409.172,496.666 399.5,496.5C 399.5,481.5 399.5,466.5 399.5,451.5 Z"/></g>
<g><path style="opacity:0.93" fill="#000000" d="M 215.5,29.5 C 239.15,27.3314 262.15,30.1647 284.5,38C 297.307,42.8162 307.807,50.6495 316,61.5C 322.478,72.1386 323.145,83.1386 318,94.5C 303.779,122.388 282.612,143.221 254.5,157C 235.229,164.069 216.895,162.069 199.5,151C 177.11,136.943 159.943,118.109 148,94.5C 141.346,76.1201 145.846,60.9535 161.5,49C 178.009,38.2204 196.009,31.7204 215.5,29.5 Z M 303.5,73.5 C 256.5,54.8333 209.5,54.8333 162.5,73.5C 164.836,68.6505 168.169,64.4839 172.5,61C 191.194,50.1181 211.361,44.6181 233,44.5C 254.639,44.6181 274.806,50.1181 293.5,61C 297.831,64.4839 301.164,68.6505 303.5,73.5 Z M 232.5,74.5 C 220.871,75.0877 209.204,76.5877 197.5,79C 185.829,81.5065 174.829,85.6732 164.5,91.5C 175.594,110.761 190.594,126.261 209.5,138C 220.779,145.259 232.779,146.926 245.5,143C 269.732,131.937 288.399,114.77 301.5,91.5C 296.559,88.1966 291.226,85.6966 285.5,84C 268.246,78.2361 250.579,75.0694 232.5,74.5 Z"/></g>
<g><path style="opacity:0.927" fill="#000000" d="M 96.5,100.5 C 108.224,98.5789 118.557,101.412 127.5,109C 153.133,134.1 166.299,164.6 167,200.5C 163.238,220.931 152.405,236.431 134.5,247C 124.905,248.413 121.405,244.58 124,235.5C 132.667,229.5 140,222.167 146,213.5C 151.414,203.369 152.747,192.702 150,181.5C 144.884,159.261 134.55,139.928 119,123.5C 84.9263,160.558 70.7596,204.224 76.5,254.5C 86.2497,252.75 95.7497,250.084 105,246.5C 111.901,247.75 114.234,251.75 112,258.5C 111.692,259.308 111.192,259.975 110.5,260.5C 60.3813,284.611 34.048,268.945 31.5,213.5C 32.4595,178.441 43.9595,147.441 66,120.5C 74.5199,111.115 84.6865,104.448 96.5,100.5 Z M 98.5,116.5 C 93.2596,119.13 88.2596,122.296 83.5,126C 58.3301,153.531 46.4967,186.031 48,223.5C 48.5559,233.849 52.2225,242.849 59,250.5C 55.4786,199.731 70.312,155.231 103.5,117C 101.866,116.506 100.199,116.34 98.5,116.5 Z"/></g>
<g><path style="opacity:0.928" fill="#000000" d="M 353.5,100.5 C 368.891,99.0346 382.224,103.535 393.5,114C 424.406,147.05 437.573,186.217 433,231.5C 428.022,263.511 409.855,276.011 378.5,269C 291.938,241.981 275.438,191.815 329,118.5C 335.617,110.135 343.784,104.135 353.5,100.5 Z M 362.5,117.5 C 365.78,120.043 368.613,123.043 371,126.5C 397.934,163.321 409.934,204.654 407,250.5C 411.548,246.075 414.548,240.741 416,234.5C 420.964,203.983 415.631,175.316 400,148.5C 392.778,134.278 381.944,123.778 367.5,117C 365.613,116.22 363.946,116.387 362.5,117.5 Z M 346.5,123.5 C 329.612,141.945 319.112,163.611 315,188.5C 313.509,200.694 316.843,211.361 325,220.5C 342.885,238.528 364.385,249.861 389.5,254.5C 395.301,203.973 380.968,160.307 346.5,123.5 Z"/></g>
<g><path style="opacity:0.932" fill="#000000" d="M 226.5,210.5 C 247.313,209.146 256.813,218.813 255,239.5C 249.954,252.61 240.454,257.777 226.5,255C 210,247.443 205.833,235.61 214,219.5C 217.299,215.118 221.466,212.118 226.5,210.5 Z M 229.5,226.5 C 223.768,235.305 226.102,239.471 236.5,239C 242.151,230.489 239.818,226.322 229.5,226.5 Z"/></g>
<g><path style="opacity:0.928" fill="#000000" d="M 133.5,279.5 C 179.308,273.514 207.475,292.848 218,337.5C 223.83,359.214 223.83,380.881 218,402.5C 213.275,412.629 205.442,419.129 194.5,422C 176.494,424.889 159.16,422.555 142.5,415C 110.284,401.116 86.1174,378.616 70,347.5C 58.7056,320.685 66.2056,301.519 92.5,290C 105.851,284.746 119.518,281.246 133.5,279.5 Z M 134.5,295.5 C 127.265,296.781 119.931,298.281 112.5,300C 105.94,301.618 99.94,304.284 94.5,308C 118.914,351.877 155.914,378.711 205.5,388.5C 207.994,366.784 205.16,345.784 197,325.5C 191.717,311.882 182.217,302.716 168.5,298C 157.281,295.823 145.948,294.99 134.5,295.5 Z M 81.5,319.5 C 80.9269,332.363 84.4269,344.029 92,354.5C 111.204,380.364 136.37,397.531 167.5,406C 177.413,408.473 187.08,407.806 196.5,404C 146.335,391.633 108.001,363.466 81.5,319.5 Z"/></g>
<g><path style="opacity:0.927" fill="#000000" d="M 306.5,279.5 C 333.637,277.577 359.304,282.744 383.5,295C 397.928,304.251 403.428,317.418 400,334.5C 396.814,346.871 391.48,358.205 384,368.5C 364.34,393.162 339.506,410.329 309.5,420C 296.974,423.622 284.308,424.289 271.5,422C 257.667,418.833 249.167,410.333 246,396.5C 239.838,362.466 245.838,330.799 264,301.5C 275.282,288.443 289.448,281.11 306.5,279.5 Z M 308.5,295.5 C 295.844,296.412 285.344,301.745 277,311.5C 262.501,335.155 257.001,360.821 260.5,388.5C 307.525,378.939 343.692,353.939 369,313.5C 370.814,311.285 371.314,308.952 370.5,306.5C 350.777,297.689 330.11,294.023 308.5,295.5 Z M 383.5,319.5 C 380.608,324.943 377.441,330.276 374,335.5C 347.25,370.471 312.417,393.305 269.5,404C 274.709,406.51 280.209,407.677 286,407.5C 324.907,401.589 355.24,382.256 377,349.5C 383.092,340.127 385.259,330.127 383.5,319.5 Z"/></g>
</svg>
