<?xml version="1.0" encoding="UTF-8"?>
<!DOCTYPE svg PUBLIC "-//W3C//DTD SVG 1.1//EN" "http://www.w3.org/Graphics/SVG/1.1/DTD/svg11.dtd">
<svg xmlns="http://www.w3.org/2000/svg" version="1.1" width="512px" height="512px" style="shape-rendering:geometricPrecision; text-rendering:geometricPrecision; image-rendering:optimizeQuality; fill-rule:evenodd; clip-rule:evenodd" xmlns:xlink="http://www.w3.org/1999/xlink">
<g><path style="opacity:0.949" fill="#000000" d="M 163.5,-0.5 C 174.167,-0.5 184.833,-0.5 195.5,-0.5C 245.579,7.29018 281.745,33.9568 304,79.5C 310.014,93.2222 313.681,107.556 315,122.5C 315.333,136.833 315.667,151.167 316,165.5C 335.859,154.828 357.025,150.995 379.5,154C 429.326,164.16 458.493,194.327 467,244.5C 467.667,329.167 467.667,413.833 467,498.5C 466.214,501.583 464.381,503.749 461.5,505C 456.633,507.774 451.633,509.941 446.5,511.5C 440.167,511.5 433.833,511.5 427.5,511.5C 422.594,509.973 417.761,507.973 413,505.5C 408.239,507.973 403.406,509.973 398.5,511.5C 392.167,511.5 385.833,511.5 379.5,511.5C 374.594,509.973 369.761,507.973 365,505.5C 360.291,508.008 355.458,510.008 350.5,511.5C 344.167,511.5 337.833,511.5 331.5,511.5C 326.594,509.973 321.761,507.973 317,505.5C 312.558,507.807 308.058,509.807 303.5,511.5C 291.5,511.5 279.5,511.5 267.5,511.5C 259.719,509.538 252.219,506.538 245,502.5C 238.11,506.401 230.943,509.401 223.5,511.5C 216.167,511.5 208.833,511.5 201.5,511.5C 193.817,509.41 186.65,506.077 180,501.5C 173.443,506.29 166.276,509.623 158.5,511.5C 151.167,511.5 143.833,511.5 136.5,511.5C 128.735,509.625 121.569,506.292 115,501.5C 108.078,506.382 100.578,509.716 92.5,511.5C 85.5,511.5 78.5,511.5 71.5,511.5C 65.0512,509.621 58.7179,507.121 52.5,504C 49,501.833 46.1667,499 44,495.5C 43.3333,371.167 43.3333,246.833 44,122.5C 52.2222,62.5621 85.0555,23.0621 142.5,4C 149.59,2.26914 156.59,0.769143 163.5,-0.5 Z M 178.5,19.5 C 231.148,22.33 267.648,47.9967 288,96.5C 290.281,103.011 291.948,109.678 293,116.5C 294.586,138.134 294.919,159.8 294,181.5C 276.528,198.109 266.195,218.442 263,242.5C 262.667,324.167 262.333,405.833 262,487.5C 258.379,485.602 255.212,483.102 252.5,480C 248.361,477.144 244.028,476.81 239.5,479C 226.151,491.527 211.151,493.86 194.5,486C 190.458,481.732 185.624,478.898 180,477.5C 175.119,478.695 170.952,481.195 167.5,485C 150.364,493.954 134.697,491.954 120.5,479C 115.972,476.81 111.639,477.144 107.5,480C 94.853,491.662 80.853,493.828 65.5,486.5C 64.3333,365.835 64.1667,245.168 65,124.5C 72.779,71.7214 102.279,37.8881 153.5,23C 161.917,21.3612 170.25,20.1945 178.5,19.5 Z M 127.5,127.5 C 139.961,126.787 145.128,132.453 143,144.5C 138.872,151.489 133.039,153.322 125.5,150C 117.133,141.699 117.8,134.199 127.5,127.5 Z M 223.5,127.5 C 234.112,126.946 239.279,131.946 239,142.5C 236.041,150.23 230.541,153.063 222.5,151C 211.713,142.661 212.046,134.828 223.5,127.5 Z M 362.5,173.5 C 409.17,176.402 437.003,200.735 446,246.5C 446.5,327.499 446.667,408.499 446.5,489.5C 435.474,492.764 425.807,490.264 417.5,482C 413.705,481.163 410.039,481.496 406.5,483C 394.833,494.333 383.167,494.333 371.5,483C 364.786,480.075 359.119,481.408 354.5,487C 342.334,492.937 331.334,491.27 321.5,482C 315.306,480.236 310.306,481.902 306.5,487C 299.17,490.923 291.67,491.423 284,488.5C 283.014,405.131 283.347,321.798 285,238.5C 296.158,199.164 321.991,177.498 362.5,173.5 Z M 176.5,198.5 C 192.983,200.323 201.65,209.656 202.5,226.5C 202.034,241.95 194.367,251.283 179.5,254.5C 164.633,251.283 156.966,241.95 156.5,226.5C 156.854,212.397 163.521,203.064 176.5,198.5 Z M 326.5,257.5 C 334.201,257.362 337.367,261.029 336,268.5C 332.042,273.436 327.709,273.769 323,269.5C 320.972,264.558 322.139,260.558 326.5,257.5 Z M 397.5,257.5 C 405.201,257.362 408.367,261.029 407,268.5C 403.042,273.436 398.709,273.769 394,269.5C 391.972,264.558 393.139,260.558 397.5,257.5 Z M 361.5,321.5 C 369.569,321.286 375.069,324.953 378,332.5C 380.521,341.91 378.021,349.744 370.5,356C 364.559,358.355 359.392,357.188 355,352.5C 347.553,339.974 349.719,329.641 361.5,321.5 Z"/></g>
<g><path style="opacity:0.946" fill="#000000" d="M 124.5,106.5 C 148.618,104.625 162.284,115.625 165.5,139.5C 161.631,165.776 146.631,176.276 120.5,171C 99.6087,160.329 93.7753,144.163 103,122.5C 108.099,114.215 115.265,108.882 124.5,106.5 Z M 127.5,127.5 C 117.8,134.199 117.133,141.699 125.5,150C 133.039,153.322 138.872,151.489 143,144.5C 145.128,132.453 139.961,126.787 127.5,127.5 Z"/></g>
<g><path style="opacity:0.946" fill="#000000" d="M 219.5,106.5 C 243.641,104.651 257.307,115.651 260.5,139.5C 260.011,154.816 252.678,165.316 238.5,171C 217.403,176.036 202.903,168.536 195,148.5C 191.6,127.62 199.767,113.62 219.5,106.5 Z M 223.5,127.5 C 212.046,134.828 211.713,142.661 222.5,151C 230.541,153.063 236.041,150.23 239,142.5C 239.279,131.946 234.112,126.946 223.5,127.5 Z"/></g>
<g><path style="opacity:0.944" fill="#000000" d="M 173.5,177.5 C 201.884,178.045 218.384,192.378 223,220.5C 224.716,240.713 217.549,256.879 201.5,269C 175.761,281.199 155.595,275.032 141,250.5C 132.524,230.876 134.191,212.209 146,194.5C 153.297,185.611 162.463,179.945 173.5,177.5 Z M 176.5,198.5 C 163.521,203.064 156.854,212.397 156.5,226.5C 156.966,241.95 164.633,251.283 179.5,254.5C 194.367,251.283 202.034,241.95 202.5,226.5C 201.65,209.656 192.983,200.323 176.5,198.5 Z"/></g>
<g><path style="opacity:0.944" fill="#000000" d="M 323.5,236.5 C 343.714,235.55 355.38,245.05 358.5,265C 355.555,285.82 343.555,295.154 322.5,293C 306.953,287.775 299.786,276.941 301,260.5C 303.579,247.758 311.079,239.758 323.5,236.5 Z M 326.5,257.5 C 322.139,260.558 320.972,264.558 323,269.5C 327.709,273.769 332.042,273.436 336,268.5C 337.367,261.029 334.201,257.362 326.5,257.5 Z"/></g>
<g><path style="opacity:0.944" fill="#000000" d="M 394.5,236.5 C 414.714,235.55 426.38,245.05 429.5,265C 426.555,285.82 414.555,295.154 393.5,293C 377.953,287.775 370.786,276.941 372,260.5C 374.579,247.758 382.079,239.758 394.5,236.5 Z M 397.5,257.5 C 393.139,260.558 391.972,264.558 394,269.5C 398.709,273.769 403.042,273.436 407,268.5C 408.367,261.029 405.201,257.362 397.5,257.5 Z"/></g>
<g><path style="opacity:0.944" fill="#000000" d="M 358.5,300.5 C 384.616,300.278 398.616,313.278 400.5,339.5C 399.594,359.558 389.594,372.391 370.5,378C 347.549,379.057 334.049,368.224 330,345.5C 327.956,322.874 337.456,307.874 358.5,300.5 Z M 361.5,321.5 C 349.719,329.641 347.553,339.974 355,352.5C 359.392,357.188 364.559,358.355 370.5,356C 378.021,349.744 380.521,341.91 378,332.5C 375.069,324.953 369.569,321.286 361.5,321.5 Z"/></g>
</svg>
