<svg width="29" height="28" viewBox="0 0 29 28" fill="none" xmlns="http://www.w3.org/2000/svg">
<path d="M9.22656 21.4084L12.8432 24.2084C13.3099 24.675 14.3599 24.9084 15.0599 24.9084H19.4932C20.8932 24.9084 22.4099 23.8584 22.7599 22.4584L25.5599 13.9417C26.1432 12.3084 25.0932 10.9084 23.3432 10.9084H18.6766C17.9766 10.9084 17.3932 10.325 17.5099 9.50838L18.0932 5.77504C18.3266 4.72504 17.6266 3.55838 16.5766 3.20838C15.6432 2.85838 14.4766 3.32504 14.0099 4.02504L9.22656 11.1417" stroke="#EF4444" stroke-width="1.5" stroke-miterlimit="10"/>
<path d="M3.27686 21.4083V9.97497C3.27686 8.34163 3.97686 7.7583 5.61019 7.7583H6.77686C8.41019 7.7583 9.11019 8.34163 9.11019 9.97497V21.4083C9.11019 23.0416 8.41019 23.625 6.77686 23.625H5.61019C3.97686 23.625 3.27686 23.0416 3.27686 21.4083Z" stroke="#EF4444" stroke-width="1.5" stroke-linecap="round" stroke-linejoin="round"/>
</svg>
