<svg width="48" height="48" viewBox="0 0 48 48" fill="none" xmlns="http://www.w3.org/2000/svg">
<path d="M39 14.998L36.02 17.978L30.02 11.978L33 8.99803C33.84 8.15803 34.92 7.75803 36 7.75803C37.08 7.75803 38.16 8.15803 39 8.99803C40.66 10.658 40.66 13.338 39 14.998ZM34.62 19.4L13 41C11.34 42.66 8.66003 42.66 7.00003 41C5.34003 39.34 5.34003 36.66 7.00003 35L28.62 13.4L34.62 19.4ZM19.9 7.00003L20.72 4.22003C20.8 3.96003 20.72 3.68003 20.54 3.48003C20.36 3.28003 20.04 3.20003 19.78 3.28003L17 4.10003L14.22 3.28003C13.96 3.20003 13.68 3.28003 13.48 3.46003C13.28 3.66003 13.22 3.94003 13.3 4.20003L14.1 7.00003L13.28 9.78003C13.2 10.04 13.28 10.32 13.46 10.52C13.66 10.72 13.94 10.78 14.2 10.7L17 9.90003L19.78 10.72C19.86 10.74 19.92 10.76 20 10.76C20.2 10.76 20.38 10.68 20.54 10.54C20.74 10.34 20.8 10.06 20.72 9.80003L19.9 7.00003ZM11.9 19L12.72 16.22C12.8 15.96 12.72 15.68 12.54 15.48C12.34 15.28 12.06 15.22 11.8 15.3L9.00003 16.1L6.22003 15.28C5.96003 15.2 5.68003 15.28 5.48003 15.46C5.28003 15.66 5.22003 15.94 5.30003 16.2L6.10003 19L5.28003 21.78C5.20003 22.04 5.28003 22.32 5.46003 22.52C5.66003 22.72 5.94003 22.78 6.20003 22.7L8.98003 21.88L11.76 22.7C11.82 22.72 11.9 22.72 11.98 22.72C12.18 22.72 12.36 22.64 12.52 22.5C12.72 22.3 12.78 22.02 12.7 21.76L11.9 19ZM41.9 29L42.72 26.22C42.8 25.96 42.72 25.68 42.54 25.48C42.34 25.28 42.06 25.22 41.8 25.3L39.02 26.12L36.24 25.3C35.98 25.22 35.7 25.3 35.5 25.48C35.3 25.68 35.24 25.96 35.32 26.22L36.14 29L35.32 31.78C35.24 32.04 35.32 32.32 35.5 32.52C35.7 32.72 35.98 32.78 36.24 32.7L39.02 31.88L41.8 32.7C41.86 32.72 41.94 32.72 42.02 32.72C42.22 32.72 42.4 32.64 42.56 32.5C42.76 32.3 42.82 32.02 42.74 31.76L41.9 29Z" fill="#EF4444"/>
</svg>
