<svg width="48" height="48" viewBox="0 0 48 48" fill="none" xmlns="http://www.w3.org/2000/svg">
<path d="M42.4998 36.94L39.1998 37.72C38.4598 37.9 37.8798 38.46 37.7198 39.2L37.0198 42.14C36.6398 43.74 34.5998 44.24 33.5398 42.98L27.5598 36.1C27.4485 35.9719 27.3717 35.8175 27.3366 35.6515C27.3016 35.4854 27.3094 35.3132 27.3595 35.151C27.4095 34.9888 27.5001 34.8421 27.6227 34.7247C27.7452 34.6073 27.8957 34.5231 28.0598 34.48C31.61 33.6169 34.7872 31.632 37.1198 28.82C37.4998 28.36 38.1798 28.3 38.5998 28.72L43.0398 33.16C44.5598 34.68 44.0198 36.58 42.4998 36.94ZM5.39984 36.94L8.69984 37.72C9.43984 37.9 10.0198 38.46 10.1798 39.2L10.8798 42.14C11.2598 43.74 13.2998 44.24 14.3598 42.98L20.3398 36.1C20.8198 35.54 20.5598 34.66 19.8398 34.48C16.2897 33.6169 13.1124 31.632 10.7798 28.82C10.6935 28.71 10.5849 28.6193 10.4613 28.554C10.3377 28.4886 10.2016 28.4499 10.0621 28.4405C9.92255 28.4311 9.78258 28.4511 9.65126 28.4992C9.51995 28.5474 9.40022 28.6226 9.29984 28.72L4.85984 33.16C3.33984 34.68 3.87984 36.58 5.39984 36.94ZM23.9998 4C16.2598 4 9.99984 10.26 9.99984 18C9.99984 20.9 10.8598 23.56 12.3398 25.78C13.4243 27.3975 14.835 28.7704 16.4814 29.8105C18.1277 30.8507 19.9734 31.5352 21.8998 31.82C22.5798 31.94 23.2798 32 23.9998 32C24.7198 32 25.4198 31.94 26.0998 31.82C30.0798 31.24 33.4998 28.98 35.6598 25.78C37.1952 23.4766 38.0098 20.7682 37.9998 18C37.9998 10.26 31.7398 4 23.9998 4ZM30.1198 17.56L28.4598 19.22C28.1798 19.5 28.0198 20.04 28.1198 20.44L28.5998 22.5C28.9798 24.12 28.1198 24.76 26.6798 23.9L24.6798 22.72C24.4767 22.6116 24.2501 22.5549 24.0198 22.5549C23.7896 22.5549 23.563 22.6116 23.3598 22.72L21.3598 23.9C19.9198 24.74 19.0598 24.12 19.4398 22.5L19.9198 20.44C19.9998 20.06 19.8598 19.5 19.5798 19.22L17.8798 17.56C16.8998 16.58 17.2198 15.6 18.5798 15.38L20.7198 15.02C21.0798 14.96 21.4998 14.64 21.6598 14.32L22.8398 11.96C23.4798 10.68 24.5198 10.68 25.1598 11.96L26.3398 14.32C26.4998 14.64 26.9198 14.96 27.2998 15.02L29.4398 15.38C30.7798 15.6 31.0998 16.58 30.1198 17.56Z" fill="#EF4444"/>
</svg>
