<?xml version="1.0" encoding="UTF-8"?>
<!DOCTYPE svg PUBLIC "-//W3C//DTD SVG 1.1//EN" "http://www.w3.org/Graphics/SVG/1.1/DTD/svg11.dtd">
<svg xmlns="http://www.w3.org/2000/svg" version="1.1" width="512px" height="512px" style="shape-rendering:geometricPrecision; text-rendering:geometricPrecision; image-rendering:optimizeQuality; fill-rule:evenodd; clip-rule:evenodd" xmlns:xlink="http://www.w3.org/1999/xlink">
<g><path style="opacity:0.946" fill="#000000" d="M 511.5,167.5 C 511.5,176.833 511.5,186.167 511.5,195.5C 496.32,256.882 480.487,318.215 464,379.5C 461.978,382.547 459.145,384.214 455.5,384.5C 406.868,372.217 358.368,359.551 310,346.5C 246.792,383.148 183.292,383.648 119.5,348C 110.431,342.267 101.931,335.767 94,328.5C 91.5,331 89,333.5 86.5,336C 91.66,339.646 94.9933,344.479 96.5,350.5C 95.846,352.115 95.346,353.782 95,355.5C 79.1667,371.333 63.3333,387.167 47.5,403C 25.331,413.448 9.33097,407.615 -0.5,385.5C -0.5,380.167 -0.5,374.833 -0.5,369.5C 1.36941,365.434 3.53607,361.434 6,357.5C 20.8333,342.667 35.6667,327.833 50.5,313C 54.0387,311.496 57.7054,311.163 61.5,312C 64.9802,314.646 68.3135,317.479 71.5,320.5C 74.1667,318.5 76.5,316.167 78.5,313.5C 36.1706,262.494 23.6706,204.828 41,140.5C 63.0628,75.1047 107.563,33.9381 174.5,17C 244.876,3.90286 304.043,23.7362 352,76.5C 357.202,83.0701 362.035,89.9034 366.5,97C 367.5,97.6667 368.5,97.6667 369.5,97C 406.077,79.4258 441.077,82.0925 474.5,105C 494.432,121.369 506.766,142.203 511.5,167.5 Z M 204.5,33.5 C 275.446,33.3696 326.946,64.7029 359,127.5C 384.062,190.076 375.395,247.41 333,299.5C 281.795,351.674 221.628,365.507 152.5,341C 90.2449,311.696 57.5782,262.529 54.5,193.5C 57.158,126.643 88.158,78.1432 147.5,48C 165.875,40.1569 184.875,35.3235 204.5,33.5 Z M 203.5,78.5 C 246.509,76.5929 281.009,92.5929 307,126.5C 334.064,168.327 335.397,210.994 311,254.5C 283.382,294.504 245.215,312.004 196.5,307C 148.98,297.48 117.814,269.647 103,223.5C 91.5587,166.449 110.392,122.616 159.5,92C 173.571,85.14 188.237,80.64 203.5,78.5 Z M 405.5,106.5 C 442.255,104.477 468.755,119.81 485,152.5C 490.607,167.448 491.94,182.782 489,198.5C 475.489,252.209 461.823,305.876 448,359.5C 447.439,360.022 446.772,360.355 446,360.5C 407.898,350.433 369.731,340.599 331.5,331C 386.776,279.157 405.276,216.324 387,142.5C 384.521,133.894 381.354,125.56 377.5,117.5C 380.13,115.179 383.13,113.346 386.5,112C 392.828,109.673 399.162,107.84 405.5,106.5 Z M 56.5,336.5 C 61.2979,340.797 65.9645,345.297 70.5,350C 58.5,362 46.5,374 34.5,386C 22.5845,388.077 18.4178,383.244 22,371.5C 33.702,359.965 45.202,348.298 56.5,336.5 Z"/></g>
<g><path style="opacity:0.944" fill="#000000" d="M 203.5,57.5 C 266.656,56.215 311.822,83.8817 339,140.5C 358.436,193.215 350.436,241.215 315,284.5C 273.025,326.702 223.525,338.868 166.5,321C 116.465,300.289 87.2979,263.122 79,209.5C 74.534,150.775 97.034,105.941 146.5,75C 164.44,65.2719 183.44,59.4385 203.5,57.5 Z M 203.5,78.5 C 188.237,80.64 173.571,85.14 159.5,92C 110.392,122.616 91.5587,166.449 103,223.5C 117.814,269.647 148.98,297.48 196.5,307C 245.215,312.004 283.382,294.504 311,254.5C 335.397,210.994 334.064,168.327 307,126.5C 281.009,92.5929 246.509,76.5929 203.5,78.5 Z"/></g>
<g><path style="opacity:0.941" fill="#000000" d="M 209.5,126.5 C 234.618,126.954 248.618,139.621 251.5,164.5C 250.663,182.18 241.996,194.18 225.5,200.5C 224.873,206.884 224.04,213.217 223,219.5C 218.88,224.71 213.714,225.877 207.5,223C 205.951,221.786 204.785,220.286 204,218.5C 203.333,208.167 203.333,197.833 204,187.5C 204.785,185.714 205.951,184.214 207.5,183C 215.61,182.522 222.443,179.355 228,173.5C 232.953,159.762 228.286,151.096 214,147.5C 201.893,149.666 195.893,156.999 196,169.5C 192.345,174.275 187.512,175.775 181.5,174C 177.855,171.681 175.855,168.348 175.5,164C 177.667,143.007 189,130.507 209.5,126.5 Z"/></g>
<g><path style="opacity:0.897" fill="#000000" d="M 209.5,239.5 C 217.761,238.112 222.761,241.446 224.5,249.5C 222.647,258.592 217.313,261.758 208.5,259C 201.606,252.024 201.939,245.524 209.5,239.5 Z"/></g>
<g><path style="opacity:0.945" fill="#000000" d="M 300.5,372.5 C 303.518,372.335 306.518,372.502 309.5,373C 356.652,384.871 403.652,397.204 450.5,410C 453.877,413.133 455.044,416.966 454,421.5C 448.123,460.033 426.623,484.866 389.5,496C 353.333,502.728 324.166,491.561 302,462.5C 285.923,435.722 283.59,407.722 295,378.5C 296.36,375.977 298.193,373.977 300.5,372.5 Z M 312.5,395.5 C 351.749,405.812 391.082,415.812 430.5,425.5C 423.262,457.396 403.262,474.73 370.5,477.5C 340.303,475.459 320.469,460.126 311,431.5C 307.643,419.321 308.143,407.321 312.5,395.5 Z"/></g>
</svg>
