<svg width="29" height="28" viewBox="0 0 29 28" fill="none" xmlns="http://www.w3.org/2000/svg">
    <path d="M14.0983 11.04C15.4867 11.04 16.6183 9.90833 16.6183 8.52C16.6183 7.13167 15.4867 6 14.0983 6C12.71 6 11.5783 7.13167 11.5783 8.52C11.5783 9.90833 12.71 11.04 14.0983 11.04ZM8.02 22.3333C9.40833 22.3333 10.54 21.2017 10.54 19.8133C10.54 18.425 9.40833 17.2933 8.02 17.2933C6.63167 17.2933 5.5 18.425 5.5 19.8133C5.5 21.2017 6.62 22.3333 8.02 22.3333ZM20.1767 22.3333C21.565 22.3333 22.6967 21.2017 22.6967 19.8133C22.6967 18.425 21.565 17.2933 20.1767 17.2933C18.7883 17.2933 17.6567 18.425 17.6567 19.8133C17.6567 21.2017 18.7883 22.3333 20.1767 22.3333Z" stroke="#EF4444" stroke-width="1.5" stroke-linecap="round" stroke-linejoin="round"/>
</svg>
