<?xml version="1.0" encoding="UTF-8"?>
<!DOCTYPE svg PUBLIC "-//W3C//DTD SVG 1.1//EN" "http://www.w3.org/Graphics/SVG/1.1/DTD/svg11.dtd">
<svg xmlns="http://www.w3.org/2000/svg" version="1.1" width="512px" height="512px" style="shape-rendering:geometricPrecision; text-rendering:geometricPrecision; image-rendering:optimizeQuality; fill-rule:evenodd; clip-rule:evenodd" xmlns:xlink="http://www.w3.org/1999/xlink">
<g><path style="opacity:0.946" fill="#000000" d="M 51.5,-0.5 C 57.5,-0.5 63.5,-0.5 69.5,-0.5C 199.166,12.8001 328.833,12.8001 458.5,-0.5C 464.5,-0.5 470.5,-0.5 476.5,-0.5C 481.207,1.71515 484.373,5.38182 486,10.5C 486.667,25.1667 486.667,39.8333 486,54.5C 482.987,59.5352 478.82,60.7019 473.5,58C 472.54,56.5806 471.707,55.0806 471,53.5C 470.5,40.5043 470.333,27.5043 470.5,14.5C 333.155,27.8276 195.822,27.8276 58.5,14.5C 57.914,14.7093 57.414,15.0426 57,15.5C 56.6667,72.1667 56.3333,128.833 56,185.5C 51.3333,190.833 46.6667,190.833 42,185.5C 41.3333,126.833 41.3333,68.1667 42,9.5C 44.0223,4.98004 47.189,1.6467 51.5,-0.5 Z"/></g>
<g><path style="opacity:0.938" fill="#000000" d="M 218.5,57.5 C 225.436,56.5371 231.77,58.0371 237.5,62C 264.079,76.8702 290.246,92.3702 316,108.5C 322.445,120.482 319.945,129.982 308.5,137C 284.67,150.414 261.003,164.081 237.5,178C 229.342,183.501 221.008,183.834 212.5,179C 210.031,176.559 208.198,173.726 207,170.5C 206.333,136.833 206.333,103.167 207,69.5C 209.019,63.6498 212.852,59.6498 218.5,57.5 Z M 223.5,72.5 C 249.806,87.6549 276.139,102.822 302.5,118C 303.022,118.561 303.355,119.228 303.5,120C 301.222,122.477 298.555,124.477 295.5,126C 271.732,139.634 247.898,153.134 224,166.5C 223.228,166.355 222.561,166.022 222,165.5C 221.333,135.167 221.333,104.833 222,74.5C 222.717,73.9558 223.217,73.2891 223.5,72.5 Z"/></g>
<g><path style="opacity:0.942" fill="#000000" d="M 134.5,511.5 C 102.833,511.5 71.1667,511.5 39.5,511.5C 31.8517,508.684 26.685,503.35 24,495.5C 20.9602,456.53 18.2935,417.53 16,378.5C 15.4454,375.458 13.6121,373.625 10.5,373C 7.89408,371.062 6.06075,368.562 5,365.5C 4.08665,356.424 4.41999,347.424 6,338.5C 8.20722,335.436 11.0406,333.436 14.5,332.5C 17.3905,316.442 26.7239,306.275 42.5,302C 50.9322,289.975 61.9322,286.808 75.5,292.5C 86.3953,287.054 97.7287,286.054 109.5,289.5C 122.726,281.503 134.559,283.17 145,294.5C 148.28,300.2 149.114,306.2 147.5,312.5C 148.5,314.167 149.833,315.5 151.5,316.5C 167.106,307.363 183.439,299.863 200.5,294C 205.489,293.501 210.489,293.334 215.5,293.5C 217.574,286.651 218.907,279.651 219.5,272.5C 200.821,272.5 182.154,273 163.5,274C 126.466,276.193 89.4663,278.526 52.5,281C 47.0557,279.376 43.5557,275.876 42,270.5C 41.3333,250.833 41.3333,231.167 42,211.5C 46.6667,206.167 51.3333,206.167 56,211.5C 56.4995,217.491 56.6662,223.491 56.5,229.5C 194.501,216.176 332.501,216.176 470.5,229.5C 470.333,181.166 470.5,132.832 471,84.5C 472.829,78.8418 476.663,77.0084 482.5,79C 484,79.8333 485.167,81 486,82.5C 486.667,144.833 486.667,207.167 486,269.5C 483.307,278.02 477.474,282.02 468.5,281.5C 415.289,276.258 361.956,273.258 308.5,272.5C 308.679,279.396 310.012,286.062 312.5,292.5C 322.18,292.6 331.514,294.433 340.5,298C 357.344,306.922 374.344,315.589 391.5,324C 398.553,332.874 397.886,341.208 389.5,349C 387.913,349.862 386.246,350.529 384.5,351C 370.5,351.667 356.5,351.667 342.5,351C 336.67,344.994 337.337,339.994 344.5,336C 355.5,335.667 366.5,335.333 377.5,335C 360.9,325.866 343.9,317.533 326.5,310C 286.866,308.369 247.2,308.036 207.5,309C 203.347,309.384 199.347,310.384 195.5,312C 183.01,318.078 170.677,324.411 158.5,331C 160.734,331.969 162.734,333.302 164.5,335C 174.517,335.832 184.517,335.666 194.5,334.5C 202.97,323.217 213.637,320.717 226.5,327C 229.833,329 232.5,331.667 234.5,335C 260.833,335.333 287.167,335.667 313.5,336C 318.906,337.98 320.739,341.814 319,347.5C 317.833,348.667 316.667,349.833 315.5,351C 289.16,351.167 262.827,351.667 236.5,352.5C 230.795,366.686 220.462,371.853 205.5,368C 198.436,365.065 193.769,359.899 191.5,352.5C 184.197,351.503 176.863,351.169 169.5,351.5C 172.251,362.459 168.751,370.459 159,375.5C 158.667,376.833 158.333,378.167 158,379.5C 155.748,418.201 153.081,456.868 150,495.5C 147.315,503.35 142.148,508.684 134.5,511.5 Z M 212.5,235.5 C 298.698,233.995 384.698,237.329 470.5,245.5C 470.5,252.167 470.5,258.833 470.5,265.5C 370,256.301 269.334,253.801 168.5,258C 131.115,259.812 93.7819,262.312 56.5,265.5C 56.5,258.833 56.5,252.167 56.5,245.5C 108.559,240.696 160.559,237.362 212.5,235.5 Z M 234.5,271.5 C 253.833,271.5 273.167,271.5 292.5,271.5C 292.94,278.916 293.94,286.249 295.5,293.5C 274.5,293.5 253.5,293.5 232.5,293.5C 234.032,286.257 234.698,278.924 234.5,271.5 Z M 124.5,299.5 C 130.657,300.161 133.157,303.494 132,309.5C 129.214,312.967 128.88,316.634 131,320.5C 134.981,323.313 138.481,326.647 141.5,330.5C 104.839,331.5 68.1727,331.833 31.5,331.5C 33.0321,325.958 36.3655,321.791 41.5,319C 45.4648,317.874 49.4648,316.874 53.5,316C 55.7375,313.97 57.2375,311.47 58,308.5C 62.9403,304.283 67.4403,304.783 71.5,310C 74.1667,310.667 76.8333,310.667 79.5,310C 83.9277,305.62 89.2611,303.12 95.5,302.5C 101.369,303.622 106.869,305.622 112,308.5C 113.627,308.375 115.127,307.875 116.5,307C 118.432,303.563 121.099,301.063 124.5,299.5 Z M 211.5,339.5 C 219.546,339.363 222.38,343.029 220,350.5C 213.698,355.273 209.198,353.939 206.5,346.5C 207.065,343.284 208.732,340.951 211.5,339.5 Z M 19.5,346.5 C 64.5,346.5 109.5,346.5 154.5,346.5C 154.5,351.167 154.5,355.833 154.5,360.5C 109.5,360.5 64.5,360.5 19.5,360.5C 19.5,355.833 19.5,351.167 19.5,346.5 Z M 31.5,375.5 C 39.5,375.5 47.5,375.5 55.5,375.5C 57.5042,415.569 60.1709,455.569 63.5,495.5C 57.1928,496.664 50.8595,496.831 44.5,496C 41.5719,494.74 39.7386,492.573 39,489.5C 36.4996,451.493 33.9996,413.493 31.5,375.5 Z M 70.5,376.5 C 81.3404,375.176 92.3404,375.176 103.5,376.5C 100.67,413.115 98.1697,449.782 96,486.5C 96.1215,492.709 93.1215,496.043 87,496.5C 80.4825,495.829 77.4825,492.163 78,485.5C 75.8647,448.986 73.3647,412.653 70.5,376.5 Z M 118.5,375.5 C 126.5,375.5 134.5,375.5 142.5,375.5C 140.262,414.57 137.429,453.57 134,492.5C 132.786,494.049 131.286,495.215 129.5,496C 123.141,496.831 116.807,496.664 110.5,495.5C 113.917,455.575 116.584,415.575 118.5,375.5 Z"/></g>
<g><path style="opacity:0.944" fill="#000000" d="M 483.5,511.5 C 461.833,511.5 440.167,511.5 418.5,511.5C 412.261,508.418 408.427,503.418 407,496.5C 405.458,472.157 403.791,447.824 402,423.5C 398.172,421.671 395.839,418.671 395,414.5C 394.333,407.5 394.333,400.5 395,393.5C 397.418,386.578 402.252,383.578 409.5,384.5C 407.336,374.572 410.003,366.405 417.5,360C 419.392,359.027 421.392,358.36 423.5,358C 429.825,357.5 436.158,357.334 442.5,357.5C 442.666,351.824 442.499,346.157 442,340.5C 434.302,333.136 426.969,325.47 420,317.5C 419.018,311.465 421.518,307.798 427.5,306.5C 429.61,307.054 431.61,307.888 433.5,309C 441.365,316.53 448.865,324.364 456,332.5C 456.862,334.087 457.529,335.754 458,337.5C 458.5,344.158 458.666,350.825 458.5,357.5C 464.842,357.334 471.175,357.5 477.5,358C 485.22,359.386 490.053,363.886 492,371.5C 492.499,375.821 492.666,380.154 492.5,384.5C 498.957,383.975 503.457,386.642 506,392.5C 506.667,400.5 506.667,408.5 506,416.5C 504.374,419.128 502.374,421.461 500,423.5C 497.752,448.795 495.752,474.129 494,499.5C 492.064,504.932 488.564,508.932 483.5,511.5 Z M 425.5,373.5 C 442.17,373.333 458.837,373.5 475.5,374C 476.456,377.394 476.789,380.894 476.5,384.5C 459.167,384.5 441.833,384.5 424.5,384.5C 424.244,380.731 424.577,377.064 425.5,373.5 Z M 410.5,399.5 C 437.5,399.5 464.5,399.5 491.5,399.5C 491.5,402.5 491.5,405.5 491.5,408.5C 464.5,408.5 437.5,408.5 410.5,408.5C 410.5,405.5 410.5,402.5 410.5,399.5 Z M 418.5,424.5 C 440.167,424.5 461.833,424.5 483.5,424.5C 482.122,448.227 480.288,471.893 478,495.5C 468.908,496.16 459.742,496.494 450.5,496.5C 441.258,496.494 432.092,496.16 423,495.5C 421.079,471.857 419.579,448.19 418.5,424.5 Z"/></g>
<g><path style="opacity:0.929" fill="#000000" d="M 183.5,375.5 C 204.806,374.306 214.306,384.306 212,405.5C 203.974,421.105 192.14,424.938 176.5,417C 167.167,408.434 165,398.267 170,386.5C 173.336,381.269 177.836,377.602 183.5,375.5 Z M 189.5,390.5 C 199.907,395.208 200.074,400.208 190,405.5C 180.225,400.709 180.058,395.709 189.5,390.5 Z"/></g>
</svg>
