<?xml version="1.0" encoding="UTF-8"?>
<!DOCTYPE svg PUBLIC "-//W3C//DTD SVG 1.1//EN" "http://www.w3.org/Graphics/SVG/1.1/DTD/svg11.dtd">
<svg xmlns="http://www.w3.org/2000/svg" version="1.1" width="512px" height="512px" style="shape-rendering:geometricPrecision; text-rendering:geometricPrecision; image-rendering:optimizeQuality; fill-rule:evenodd; clip-rule:evenodd" xmlns:xlink="http://www.w3.org/1999/xlink">
<g><path style="opacity:0.947" fill="#000000" d="M 389.5,-0.5 C 392.5,-0.5 395.5,-0.5 398.5,-0.5C 412.434,10.2557 426.267,21.2557 440,32.5C 442.835,43.3303 438.669,48.497 427.5,48C 419.556,43.1107 412.056,37.6107 405,31.5C 404.974,67.2136 404.307,102.88 403,138.5C 393.035,161.564 375.869,169.731 351.5,163C 333.635,154.44 325.802,140.274 328,120.5C 334.713,97.2121 350.213,87.0455 374.5,90C 377.264,90.5323 379.93,91.3657 382.5,92.5C 383.333,63.8391 383.833,35.1725 384,6.5C 384.967,3.37935 386.8,1.04602 389.5,-0.5 Z M 360.5,110.5 C 378.075,109.361 385.242,117.361 382,134.5C 375.248,145.031 366.415,147.197 355.5,141C 346.997,132.97 346.331,124.303 353.5,115C 355.898,113.476 358.231,111.976 360.5,110.5 Z"/></g>
<g><path style="opacity:0.95" fill="#000000" d="M 289.5,31.5 C 295.59,30.1372 300.09,32.1372 303,37.5C 303.667,72.8333 303.667,108.167 303,143.5C 300.923,147.9 297.423,150.4 292.5,151C 255.235,161.811 217.902,172.311 180.5,182.5C 180.667,224.501 180.5,266.501 180,308.5C 178.027,337.807 162.861,356.307 134.5,364C 101.223,368.284 78.7229,354.784 67,323.5C 60.9082,295.191 70.0749,273.358 94.5,258C 116.963,247.82 138.297,249.653 158.5,263.5C 159.007,199.087 159.84,134.754 161,70.5C 162.579,68.9588 164.413,67.7922 166.5,67C 207.701,55.428 248.701,43.5946 289.5,31.5 Z M 278.5,56.5 C 279.833,56.5 281.167,56.5 282.5,56.5C 282.667,81.5022 282.5,106.502 282,131.5C 248.322,141.67 214.488,151.337 180.5,160.5C 180.5,135.167 180.5,109.833 180.5,84.5C 213.438,75.7688 246.105,66.4354 278.5,56.5 Z M 114.5,272.5 C 144.985,271.485 159.485,286.152 158,316.5C 152.337,333.589 140.504,342.923 122.5,344.5C 100.962,341.962 88.6282,329.962 85.5,308.5C 87.1142,289.906 96.7808,277.906 114.5,272.5 Z"/></g>
<g><path style="opacity:0.951" fill="#000000" d="M 229.5,511.5 C 222.167,511.5 214.833,511.5 207.5,511.5C 172.992,501.457 157.825,478.457 162,442.5C 170.343,414.324 189.176,399.324 218.5,397.5C 231.872,397.795 243.705,402.129 254,410.5C 254.333,347.833 254.667,285.167 255,222.5C 255.606,219.452 257.106,216.952 259.5,215C 322.452,200.976 385.452,187.143 448.5,173.5C 452.768,173.878 455.935,175.878 458,179.5C 458.667,261.5 458.667,343.5 458,425.5C 450.551,454.777 431.718,470.444 401.5,472.5C 366.304,469.637 346.971,450.637 343.5,415.5C 348.305,375.86 370.639,357.027 410.5,359C 420.367,360.518 429.2,364.352 437,370.5C 437.5,345.502 437.667,320.502 437.5,295.5C 383.501,307.166 329.501,318.833 275.5,330.5C 275.667,375.501 275.5,420.501 275,465.5C 268.994,490.005 253.828,505.339 229.5,511.5 Z M 435.5,197.5 C 436.832,209.815 437.499,222.482 437.5,235.5C 437.167,248.167 436.833,260.833 436.5,273.5C 382.96,285.441 329.46,297.441 276,309.5C 275.5,283.835 275.333,258.169 275.5,232.5C 329.015,221.118 382.348,209.451 435.5,197.5 Z M 394.5,379.5 C 415.964,377.97 430.131,387.303 437,407.5C 439.1,431.136 428.6,445.636 405.5,451C 383.565,451.403 370.065,440.903 365,419.5C 364.874,398.729 374.708,385.396 394.5,379.5 Z M 217.5,418.5 C 243.733,421.562 255.9,436.229 254,462.5C 247.214,483.653 232.714,492.819 210.5,490C 186.246,481.659 177.746,465.159 185,440.5C 191.975,427.276 202.808,419.943 217.5,418.5 Z"/></g>
<g><path style="opacity:0.904" fill="#000000" d="M 91.5,388.5 C 100.145,389.147 104.145,393.814 103.5,402.5C 104.595,410.57 101.095,414.903 93,415.5C 85.4296,414.254 81.9296,409.754 82.5,402C 82.1798,395.107 85.1798,390.607 91.5,388.5 Z"/></g>
<g><path style="opacity:0.901" fill="#000000" d="M 59.5,419.5 C 63.5138,419.334 67.5138,419.501 71.5,420C 78.053,422.73 80.2196,427.563 78,434.5C 77.2155,436.286 76.0488,437.786 74.5,439C 69.2545,440.506 63.9212,440.839 58.5,440C 52.8912,436.723 51.0578,431.89 53,425.5C 54.4936,422.686 56.6603,420.686 59.5,419.5 Z"/></g>
<g><path style="opacity:0.901" fill="#000000" d="M 115.5,419.5 C 119.182,419.335 122.848,419.501 126.5,420C 135.03,423.984 136.697,429.984 131.5,438C 126.092,440.444 120.426,441.11 114.5,440C 107.498,435.995 105.998,430.495 110,423.5C 111.5,421.531 113.333,420.198 115.5,419.5 Z"/></g>
<g><path style="opacity:0.896" fill="#000000" d="M 90.5,444.5 C 95.9483,443.975 100.115,445.975 103,450.5C 103.667,455.5 103.667,460.5 103,465.5C 99.1791,471.393 94.0125,472.893 87.5,470C 81.8736,463.459 81.0403,456.292 85,448.5C 86.4998,446.531 88.3331,445.198 90.5,444.5 Z"/></g>
</svg>
