<?xml version="1.0" encoding="UTF-8"?>
<!DOCTYPE svg PUBLIC "-//W3C//DTD SVG 1.1//EN" "http://www.w3.org/Graphics/SVG/1.1/DTD/svg11.dtd">
<svg xmlns="http://www.w3.org/2000/svg" version="1.1" width="512px" height="512px" style="shape-rendering:geometricPrecision; text-rendering:geometricPrecision; image-rendering:optimizeQuality; fill-rule:evenodd; clip-rule:evenodd" xmlns:xlink="http://www.w3.org/1999/xlink">
<g><path style="opacity:0.93" fill="#000000" d="M 351.5,-0.5 C 356.167,-0.5 360.833,-0.5 365.5,-0.5C 384.935,8.30048 389.768,22.3005 380,41.5C 372.413,50.2514 362.913,53.418 351.5,51C 336.427,45.3638 330.26,34.5305 333,18.5C 336.017,8.98387 342.184,2.65054 351.5,-0.5 Z M 354.5,15.5 C 364.988,14.4874 369.488,19.154 368,29.5C 365.081,35.0248 360.581,36.8581 354.5,35C 348.975,32.0812 347.142,27.5812 349,21.5C 350.36,18.9774 352.193,16.9774 354.5,15.5 Z"/></g>
<g><path style="opacity:0.937" fill="#000000" d="M 386.5,511.5 C 380.5,511.5 374.5,511.5 368.5,511.5C 361.039,509.433 354.372,505.766 348.5,500.5C 344.855,505.634 340.188,509.3 334.5,511.5C 271.167,511.5 207.833,511.5 144.5,511.5C 134.939,507.767 129.106,500.767 127,490.5C 112.775,395.483 98.4417,300.483 84,205.5C 80.4281,200.03 77.0947,194.364 74,188.5C 67.5876,171.318 70.7543,156.151 83.5,143C 86.5849,141.04 89.7515,139.207 93,137.5C 94.4189,120.305 103.252,108.972 119.5,103.5C 110.444,91.6126 110.277,79.6126 119,67.5C 127.115,60.0457 136.615,57.0457 147.5,58.5C 157.569,31.6286 176.902,19.7953 205.5,23C 207.762,23.6419 209.929,24.4752 212,25.5C 221.272,14.1864 233.106,10.0197 247.5,13C 257.572,15.6966 264.906,21.6966 269.5,31C 289.798,30.3047 302.798,39.638 308.5,59C 327.722,59.3893 339.722,68.8893 344.5,87.5C 373.6,93.6791 388.6,111.679 389.5,141.5C 398.692,146.526 404.526,154.192 407,164.5C 410.412,180.212 406.412,193.545 395,204.5C 385.148,268.132 375.481,331.799 366,395.5C 362.333,403.167 357.333,404.167 351,398.5C 350.333,394.833 350.333,391.167 351,387.5C 360.068,327.524 368.901,267.524 377.5,207.5C 363.5,207.5 349.5,207.5 335.5,207.5C 326.473,303.796 317.806,400.13 309.5,496.5C 315.509,496.666 321.509,496.499 327.5,496C 330.034,495.484 332.2,494.317 334,492.5C 336.468,484.981 336.968,477.315 335.5,469.5C 324.902,462.219 321.068,452.219 324,439.5C 329.339,425.573 339.506,419.407 354.5,421C 360.914,422.373 366.247,425.539 370.5,430.5C 376.187,429.167 381.853,429.334 387.5,431C 395.788,434.81 403.788,439.144 411.5,444C 433.511,446.001 442.678,457.834 439,479.5C 436.193,487.641 430.693,493.141 422.5,496C 418.227,497.03 413.894,497.697 409.5,498C 402.648,504.085 394.982,508.585 386.5,511.5 Z M 233.5,28.5 C 247.485,27.2501 255.652,33.5834 258,47.5C 258.75,48.1258 259.584,48.6258 260.5,49C 265.407,49.3679 270.24,48.8679 275,47.5C 285.035,48.5352 290.869,54.0352 292.5,64C 290.45,69.0891 291.45,73.4224 295.5,77C 302.142,76.4566 308.809,76.1233 315.5,76C 319.985,77.4766 323.651,80.1433 326.5,84C 309.453,81.2716 298.287,88.1049 293,104.5C 291.048,115.201 294.214,124.034 302.5,131C 317.215,139.656 330.049,137.489 341,124.5C 344.982,118.427 346.148,111.927 344.5,105C 358.921,107.079 368.087,115.245 372,129.5C 372.424,135.862 372.424,142.195 372,148.5C 374.273,152.567 377.773,155.067 382.5,156C 389.087,160.341 392.087,166.508 391.5,174.5C 391.957,180.967 389.957,186.467 385.5,191C 335.168,191.5 284.834,191.667 234.5,191.5C 239.32,170.315 230.986,157.981 209.5,154.5C 188.515,158.107 180.182,170.441 184.5,191.5C 154.26,191.829 124.093,191.495 94,190.5C 83.9235,178.398 84.0901,166.565 94.5,155C 97.8984,153.084 101.565,152.084 105.5,152C 107.286,151.215 108.786,150.049 110,148.5C 110.609,144.476 110.442,140.476 109.5,136.5C 111.018,125.979 117.018,120.313 127.5,119.5C 128.358,125.049 130.691,129.883 134.5,134C 143.194,136.739 147.361,133.573 147,124.5C 142.424,116.706 140.758,108.372 142,99.5C 139.229,96.4408 135.896,94.1075 132,92.5C 126.622,83.6432 128.956,77.6432 139,74.5C 141.245,75.1371 143.412,75.9704 145.5,77C 147.617,79.9352 149.951,82.6019 152.5,85C 159.487,84.7456 166.487,84.7456 173.5,85C 175.949,85.7246 178.283,86.7246 180.5,88C 184.217,91.3847 188.217,94.3847 192.5,97C 197.083,98.1447 201.749,98.8113 206.5,99C 214.885,103.479 216.218,109.479 210.5,117C 203.903,118.798 197.236,120.465 190.5,122C 183.704,129.232 175.371,133.565 165.5,135C 160.167,139.667 160.167,144.333 165.5,149C 178.117,150.568 188.783,146.568 197.5,137C 207.705,136.823 216.539,133.323 224,126.5C 233.342,112.732 232.175,99.8983 220.5,88C 213.809,83.8261 206.475,81.8261 198.5,82C 188.727,71.6851 176.727,67.1851 162.5,68.5C 166.011,50.3255 177.011,39.9922 195.5,37.5C 202.673,38.8366 209.507,41.17 216,44.5C 220.959,43.5406 223.959,40.5406 225,35.5C 227.441,32.5464 230.275,30.2131 233.5,28.5 Z M 315.5,99.5 C 327.345,99.8715 331.178,105.538 327,116.5C 321.005,122.087 315.338,121.754 310,115.5C 307.024,108.462 308.857,103.129 315.5,99.5 Z M 207.5,170.5 C 218.454,171.901 221.954,177.568 218,187.5C 213.308,192.216 208.141,192.716 202.5,189C 197.342,180.887 199.009,174.72 207.5,170.5 Z M 100.5,207.5 C 114.833,207.5 129.167,207.5 143.5,207.5C 151.807,303.875 160.474,400.209 169.5,496.5C 162.094,496.848 154.761,496.348 147.5,495C 145.19,493.363 143.69,491.196 143,488.5C 128.878,394.813 114.712,301.146 100.5,207.5 Z M 159.5,207.5 C 173.5,207.5 187.5,207.5 201.5,207.5C 203.116,236.823 203.783,266.156 203.5,295.5C 190.829,298.44 179.329,303.773 169,311.5C 165.502,276.86 162.336,242.194 159.5,207.5 Z M 217.5,207.5 C 231.833,207.5 246.167,207.5 260.5,207.5C 259.551,235.826 258.884,264.159 258.5,292.5C 245.831,291.193 233.164,291.193 220.5,292.5C 219.722,264.146 218.722,235.813 217.5,207.5 Z M 276.5,207.5 C 290.849,207.167 305.182,207.501 319.5,208.5C 316.328,242.891 312.828,277.224 309,311.5C 298.29,303.562 286.457,297.896 273.5,294.5C 274.871,265.544 275.871,236.544 276.5,207.5 Z M 226.5,307.5 C 251.36,305.362 274.693,310.196 296.5,322C 303.493,326.295 306.993,332.462 307,340.5C 303.888,347.279 299.055,352.445 292.5,356C 270.293,366.459 246.96,370.126 222.5,367C 207.776,365.314 194.109,360.648 181.5,353C 168.559,343.5 168.226,333.5 180.5,323C 194.884,314.706 210.217,309.539 226.5,307.5 Z M 173.5,367.5 C 184.047,373.795 195.38,378.128 207.5,380.5C 208.298,419.172 209.298,457.839 210.5,496.5C 202.167,496.5 193.833,496.5 185.5,496.5C 181.62,453.481 177.62,410.481 173.5,367.5 Z M 303.5,367.5 C 304.156,368.622 304.489,369.955 304.5,371.5C 300.412,413.136 296.745,454.802 293.5,496.5C 284.833,496.5 276.167,496.5 267.5,496.5C 268.642,457.805 270.309,419.138 272.5,380.5C 283.734,378.042 294.067,373.709 303.5,367.5 Z M 223.5,383.5 C 234.167,383.5 244.833,383.5 255.5,383.5C 254.247,421.176 252.914,458.843 251.5,496.5C 243.167,496.5 234.833,496.5 226.5,496.5C 225.399,458.836 224.399,421.17 223.5,383.5 Z M 346.5,436.5 C 349.32,436.248 351.986,436.748 354.5,438C 357.167,441 359.833,444 362.5,447C 367.403,447.422 372.236,446.922 377,445.5C 381.275,446.277 385.442,447.444 389.5,449C 393.167,452 396.833,455 400.5,458C 406.766,459.749 413.099,461.082 419.5,462C 426.778,469.612 425.778,475.946 416.5,481C 411.771,481.273 407.104,481.939 402.5,483C 398.217,485.615 394.217,488.615 390.5,492C 374.808,499.233 362.642,495.4 354,480.5C 353.042,473.472 352.042,466.472 351,459.5C 349.2,457.683 347.034,456.516 344.5,456C 337.327,448.566 337.993,442.066 346.5,436.5 Z"/></g>
<g><path style="opacity:0.848" fill="#000000" d="M 236.5,56.5 C 245.519,56.5338 248.685,60.8671 246,69.5C 240.967,73.7793 236.3,73.4459 232,68.5C 230.309,63.1311 231.809,59.1311 236.5,56.5 Z"/></g>
<g><path style="opacity:0.853" fill="#000000" d="M 344.5,142.5 C 355.598,142.186 358.598,146.853 353.5,156.5C 343.888,160.058 339.721,156.724 341,146.5C 342.376,145.295 343.542,143.962 344.5,142.5 Z"/></g>
<g><path style="opacity:0.849" fill="#000000" d="M 289.5,161.5 C 297.201,161.362 300.367,165.029 299,172.5C 296.565,177.224 292.731,178.724 287.5,177C 281.731,170.8 282.398,165.633 289.5,161.5 Z"/></g>
<g><path style="opacity:0.897" fill="#000000" d="M 241.5,324.5 C 249.118,323.62 252.618,326.953 252,334.5C 248.098,340.459 243.598,345.959 238.5,351C 229.884,352.717 226.051,349.217 227,340.5C 231.159,334.485 235.992,329.152 241.5,324.5 Z"/></g>
</svg>
