<?xml version="1.0" encoding="UTF-8"?>
<!DOCTYPE svg PUBLIC "-//W3C//DTD SVG 1.1//EN" "http://www.w3.org/Graphics/SVG/1.1/DTD/svg11.dtd">
<svg xmlns="http://www.w3.org/2000/svg" version="1.1" width="512px" height="512px" style="shape-rendering:geometricPrecision; text-rendering:geometricPrecision; image-rendering:optimizeQuality; fill-rule:evenodd; clip-rule:evenodd" xmlns:xlink="http://www.w3.org/1999/xlink">
<g><path style="opacity:0.943" fill="#000000" d="M -0.5,202.5 C -0.5,191.167 -0.5,179.833 -0.5,168.5C 5.1469,125.021 26.1469,91.1878 62.5,67C 103.503,44.4825 144.836,43.8159 186.5,65C 195.195,70.0231 203.028,76.1897 210,83.5C 240.699,54.8291 276.866,44.3291 318.5,52C 374.336,66.8392 407.836,102.673 419,159.5C 420.23,167.799 421.063,176.132 421.5,184.5C 464.204,190.363 491.704,214.03 504,255.5C 511.232,286.212 506.898,315.212 491,342.5C 476.509,365.675 459.009,386.508 438.5,405C 414.253,425.793 388.253,444.126 360.5,460C 353.975,462.448 347.975,461.448 342.5,457C 314.346,440.347 288.012,421.181 263.5,399.5C 246.87,411.647 229.203,421.98 210.5,430.5C 200.097,426.132 190.097,420.965 180.5,415C 137.416,389.006 98.2492,357.839 63,321.5C 42.6274,299.771 25.9607,275.438 13,248.5C 6.61092,233.59 2.11092,218.256 -0.5,202.5 Z M 117.5,70.5 C 152.702,68.7714 181.702,81.2714 204.5,108C 208.167,110 211.833,110 215.5,108C 244.725,75.0375 280.725,64.0375 323.5,75C 366.544,91.061 391.711,121.894 399,167.5C 399.35,172.184 399.85,176.851 400.5,181.5C 400.167,182.5 399.833,183.5 399.5,184.5C 382.12,187.441 366.953,194.774 354,206.5C 327.153,184.131 296.987,178.298 263.5,189C 231.133,202.034 210.966,225.534 203,259.5C 197.156,288.438 201.49,315.772 216,341.5C 225.034,356.899 235.534,371.232 247.5,384.5C 235.67,392.918 223.337,400.585 210.5,407.5C 162.6,380.451 119.1,347.451 80,308.5C 61.9464,288.776 46.613,267.11 34,243.5C 10.6279,192.554 16.6279,145.554 52,102.5C 70.137,84.1811 91.9703,73.5145 117.5,70.5 Z M 290.5,204.5 C 313.369,204.106 332.036,212.606 346.5,230C 350.67,232.788 355.003,233.121 359.5,231C 386.289,202.483 416.956,197.483 451.5,216C 480.473,238.236 491.306,267.403 484,303.5C 480.002,318.827 473.335,332.827 464,345.5C 433.681,384.164 397.014,415.164 354,438.5C 314.953,416.796 280.619,389.13 251,355.5C 236.247,337.658 226.581,317.325 222,294.5C 218.68,261.653 230.18,235.487 256.5,216C 267.02,209.438 278.353,205.605 290.5,204.5 Z"/></g>
<g><path style="opacity:0.908" fill="#000000" d="M 469.5,78.5 C 476.445,76.7747 481.278,79.108 484,85.5C 485.068,90.7683 484.401,95.7683 482,100.5C 474.843,106.377 468.843,105.377 464,97.5C 463.333,93.1667 463.333,88.8333 464,84.5C 465.36,81.9774 467.193,79.9774 469.5,78.5 Z"/></g>
<g><path style="opacity:0.925" fill="#000000" d="M 441.5,106.5 C 446.959,106.103 452.292,106.603 457.5,108C 461.714,112.2 462.548,117.034 460,122.5C 458.786,124.049 457.286,125.215 455.5,126C 450.051,126.896 444.718,126.563 439.5,125C 433.795,118.077 434.462,111.911 441.5,106.5 Z"/></g>
<g><path style="opacity:0.923" fill="#000000" d="M 511.5,111.5 C 511.5,114.833 511.5,118.167 511.5,121.5C 510.028,123.134 508.362,124.634 506.5,126C 501.5,126.667 496.5,126.667 491.5,126C 485.672,121.518 484.505,116.018 488,109.5C 488.903,108.299 490.069,107.465 491.5,107C 496.5,106.333 501.5,106.333 506.5,107C 508.362,108.366 510.028,109.866 511.5,111.5 Z"/></g>
<g><path style="opacity:0.907" fill="#000000" d="M 471.5,128.5 C 477.583,128.286 481.75,130.952 484,136.5C 485.068,141.768 484.401,146.768 482,151.5C 478.319,154.36 474.152,155.193 469.5,154C 467,152.833 465.167,151 464,148.5C 463.333,144.167 463.333,139.833 464,135.5C 465.767,132.228 468.267,129.895 471.5,128.5 Z"/></g>
<g><path style="opacity:0.904" fill="#000000" d="M 77.5,374.5 C 83.3274,373.937 87.4941,376.27 90,381.5C 90.6667,385.833 90.6667,390.167 90,394.5C 86.7231,400.109 81.8897,401.942 75.5,400C 72.6193,398.749 70.786,396.583 70,393.5C 67.5609,384.948 70.0609,378.615 77.5,374.5 Z"/></g>
<g><path style="opacity:0.903" fill="#000000" d="M 49.5,402.5 C 53.1817,402.335 56.8484,402.501 60.5,403C 67.2675,406.236 69.4342,411.403 67,418.5C 65.8333,419.667 64.6667,420.833 63.5,422C 58.6178,423.555 53.6178,423.888 48.5,423C 42.4751,419.723 40.6418,414.889 43,408.5C 44.4936,405.686 46.6603,403.686 49.5,402.5 Z"/></g>
<g><path style="opacity:0.901" fill="#000000" d="M 100.5,402.5 C 106.932,401.347 112.432,403.014 117,407.5C 120.234,418.054 116.4,423.388 105.5,423.5C 95.5125,424.013 91.3459,419.346 93,409.5C 94.6315,406.123 97.1315,403.79 100.5,402.5 Z"/></g>
<g><path style="opacity:0.898" fill="#000000" d="M 77.5,425.5 C 83.4247,424.875 87.5914,427.208 90,432.5C 90.6667,436.833 90.6667,441.167 90,445.5C 86.7231,451.109 81.8897,452.942 75.5,451C 72.6193,449.749 70.786,447.583 70,444.5C 67.5716,435.91 70.0716,429.576 77.5,425.5 Z"/></g>
</svg>
