<svg width="28" height="28" viewBox="0 0 28 28" fill="none" xmlns="http://www.w3.org/2000/svg">
<path d="M15.6838 3.67125L17.7371 7.77792C18.0171 8.34958 18.7638 8.89792 19.3938 9.00292L23.1154 9.62125C25.4954 10.0179 26.0554 11.7446 24.3404 13.4479L21.4471 16.3413C20.9571 16.8313 20.6888 17.7763 20.8404 18.4529L21.6688 22.0346C22.3221 24.8696 20.8171 25.9663 18.3088 24.4846L14.8204 22.4196C14.1904 22.0463 13.1521 22.0463 12.5104 22.4196L9.02209 24.4846C6.52542 25.9663 5.00875 24.8579 5.66209 22.0346L6.49042 18.4529C6.64209 17.7763 6.37375 16.8313 5.88375 16.3413L2.99042 13.4479C1.28709 11.7446 1.83542 10.0179 4.21542 9.62125L7.93709 9.00292C8.55542 8.89792 9.30209 8.34958 9.58209 7.77792L11.6354 3.67125C12.7554 1.44292 14.5754 1.44292 15.6838 3.67125Z" stroke="#EF4444" stroke-width="1.5" stroke-linecap="round" stroke-linejoin="round"/>
</svg>
