<?xml version="1.0" encoding="UTF-8"?>
<!DOCTYPE svg PUBLIC "-//W3C//DTD SVG 1.1//EN" "http://www.w3.org/Graphics/SVG/1.1/DTD/svg11.dtd">
<svg xmlns="http://www.w3.org/2000/svg" version="1.1" width="512px" height="512px" style="shape-rendering:geometricPrecision; text-rendering:geometricPrecision; image-rendering:optimizeQuality; fill-rule:evenodd; clip-rule:evenodd" xmlns:xlink="http://www.w3.org/1999/xlink">
<g><path style="opacity:0.934" fill="#000000" d="M 103.5,-0.5 C 112.833,-0.5 122.167,-0.5 131.5,-0.5C 166.228,5.87465 191.562,24.8747 207.5,56.5C 223.402,24.8864 248.735,5.88643 283.5,-0.5C 292.833,-0.5 302.167,-0.5 311.5,-0.5C 362.981,11.3247 390.981,43.6581 395.5,96.5C 393.752,133.511 377.418,162.011 346.5,182C 350.788,184.292 353.622,187.792 355,192.5C 355.5,204.495 355.667,216.495 355.5,228.5C 362.841,228.666 370.174,228.5 377.5,228C 407.5,215.667 437.5,203.333 467.5,191C 478.352,189.193 485.852,193.36 490,203.5C 490.667,232.167 490.667,260.833 490,289.5C 486.623,293.749 482.457,294.582 477.5,292C 476.283,290.352 475.45,288.519 475,286.5C 474.829,259.928 474.329,233.428 473.5,207C 444.7,217.474 416.2,228.974 388,241.5C 387.333,260.167 387.333,278.833 388,297.5C 415.619,309.652 443.452,321.318 471.5,332.5C 472.442,332.392 473.275,332.059 474,331.5C 474.173,326.416 474.839,321.416 476,316.5C 480.667,311.167 485.333,311.167 490,316.5C 490.667,323.167 490.667,329.833 490,336.5C 484.442,347.852 475.608,351.352 463.5,347C 435.5,335.333 407.5,323.667 379.5,312C 371.507,311.5 363.507,311.334 355.5,311.5C 355.667,323.171 355.5,334.838 355,346.5C 352.432,353.401 347.598,357.901 340.5,360C 321.17,360.5 301.836,360.667 282.5,360.5C 293.172,406.854 304.005,453.187 315,499.5C 316.407,504.444 315.241,508.444 311.5,511.5C 308.833,511.5 306.167,511.5 303.5,511.5C 302.164,509.99 300.997,508.323 300,506.5C 288.667,458.5 277.333,410.5 266,362.5C 259.115,360.559 251.948,359.892 244.5,360.5C 258.726,408.347 273.06,456.181 287.5,504C 287.073,507.023 285.739,509.523 283.5,511.5C 280.833,511.5 278.167,511.5 275.5,511.5C 273.438,509.59 271.938,507.257 271,504.5C 260.667,470.5 250.333,436.5 240,402.5C 238.254,435.145 236.92,467.812 236,500.5C 236.355,505.11 234.855,508.776 231.5,511.5C 228.833,511.5 226.167,511.5 223.5,511.5C 221.02,509.077 219.686,506.077 219.5,502.5C 221.672,455.19 223.338,407.857 224.5,360.5C 217.167,360.5 209.833,360.5 202.5,360.5C 204.494,409.493 205.994,458.493 207,507.5C 205.624,508.705 204.458,510.038 203.5,511.5C 200.833,511.5 198.167,511.5 195.5,511.5C 194.164,509.99 192.997,508.323 192,506.5C 190.391,471.845 189.058,437.178 188,402.5C 177.359,435.729 167.026,469.062 157,502.5C 156.344,505.996 154.844,508.996 152.5,511.5C 149.5,511.5 146.5,511.5 143.5,511.5C 141.327,509.508 139.994,507.008 139.5,504C 151.641,463.912 163.974,423.912 176.5,384C 169.635,384.071 162.801,384.571 156,385.5C 146.333,426.167 136.667,466.833 127,507.5C 126.31,509.35 125.144,510.684 123.5,511.5C 120.833,511.5 118.167,511.5 115.5,511.5C 113.261,509.523 111.927,507.023 111.5,504C 120.916,464.171 130.249,424.337 139.5,384.5C 117.497,384.667 95.4975,384.5 73.5,384C 66.3333,382.167 61.8333,377.667 60,370.5C 59.5001,357.171 59.3334,343.837 59.5,330.5C 53.8236,330.666 48.1569,330.499 42.5,330C 34.895,328.062 30.395,323.228 29,315.5C 28.3333,294.5 28.3333,273.5 29,252.5C 30.7224,244.444 35.5557,239.277 43.5,237C 48.8229,236.501 54.1563,236.334 59.5,236.5C 59.3334,222.163 59.5001,207.829 60,193.5C 61.6058,188.618 64.4392,184.618 68.5,181.5C 30.7255,156.599 15.2255,121.599 22,76.5C 33.5354,34.1275 60.7021,8.46081 103.5,-0.5 Z M 116.5,14.5 C 157.462,16.976 184.295,37.6426 197,76.5C 204.477,120.047 188.643,151.88 149.5,172C 114.28,184.652 83.4464,177.818 57,151.5C 33.8707,122.537 30.2041,91.204 46,57.5C 62.1437,31.0154 85.6437,16.682 116.5,14.5 Z M 296.5,14.5 C 338.06,17.3577 364.893,38.691 377,78.5C 383.059,112.327 372.893,140.16 346.5,162C 312.378,184.53 278.711,183.864 245.5,160C 217.541,134.449 209.374,103.616 221,67.5C 235.58,34.754 260.746,17.0874 296.5,14.5 Z M 116.5,41.5 C 125.786,43.8832 127.453,48.7166 121.5,56C 113.209,57.9546 109.709,54.788 111,46.5C 112.352,44.251 114.185,42.5844 116.5,41.5 Z M 295.5,41.5 C 302.649,41.8171 305.483,45.4838 304,52.5C 301.487,56.2115 297.987,57.3782 293.5,56C 287.947,50.3662 288.613,45.5329 295.5,41.5 Z M 67.5,89.5 C 75.8794,88.9932 79.0461,92.6599 77,100.5C 70.3317,106.433 65.4984,105.1 62.5,96.5C 63.4658,93.5314 65.1325,91.198 67.5,89.5 Z M 161.5,89.5 C 169.161,88.663 172.661,91.9964 172,99.5C 167.473,106.053 162.806,106.053 158,99.5C 157.182,95.4695 158.349,92.1361 161.5,89.5 Z M 246.5,89.5 C 252.755,88.2607 256.422,90.7607 257.5,97C 257.011,101.489 254.511,103.989 250,104.5C 243.887,103.28 241.554,99.6135 243,93.5C 244.376,92.2949 245.542,90.9616 246.5,89.5 Z M 341.5,89.5 C 348.664,88.508 352.164,91.508 352,98.5C 348.154,105.466 343.487,106.133 338,100.5C 336.663,95.8721 337.83,92.2054 341.5,89.5 Z M 115.5,136.5 C 122.642,136.141 125.809,139.474 125,146.5C 120.748,152.653 116.081,152.986 111,147.5C 109.776,142.626 111.276,138.959 115.5,136.5 Z M 206.5,136.5 C 209.7,139.866 212.2,143.866 214,148.5C 221.792,159.959 231.292,169.792 242.5,178C 219.167,178.667 195.833,178.667 172.5,178C 188.147,167.537 199.48,153.704 206.5,136.5 Z M 294.5,136.5 C 302.201,136.362 305.367,140.029 304,147.5C 300.042,152.436 295.709,152.769 291,148.5C 288.947,143.596 290.114,139.596 294.5,136.5 Z M 78.5,194.5 C 165.249,194.005 251.915,194.505 338.5,196C 339.664,244.763 339.83,293.596 339,342.5C 338.5,343 338,343.5 337.5,344C 289.167,344.333 240.833,344.667 192.5,345C 190.152,345.346 188.319,346.513 187,348.5C 183.135,356.08 177.968,362.58 171.5,368C 139.833,368.667 108.167,368.667 76.5,368C 75.3359,310.904 75.1692,253.737 76,196.5C 76.9947,195.934 77.828,195.267 78.5,194.5 Z M 355.5,244.5 C 360.833,244.5 366.167,244.5 371.5,244.5C 371.5,261.5 371.5,278.5 371.5,295.5C 366.167,295.5 360.833,295.5 355.5,295.5C 355.5,278.5 355.5,261.5 355.5,244.5 Z M 46.5,252.5 C 50.8333,252.5 55.1667,252.5 59.5,252.5C 59.5,273.167 59.5,293.833 59.5,314.5C 55.1539,314.666 50.8206,314.499 46.5,314C 46,313.5 45.5,313 45,312.5C 44.3333,293.167 44.3333,273.833 45,254.5C 45.7172,253.956 46.2172,253.289 46.5,252.5 Z"/></g>
<g><path style="opacity:0.928" fill="#000000" d="M 114.5,25.5 C 132.983,26.4785 141.816,36.1452 141,54.5C 134.992,70.5875 123.826,76.0875 107.5,71C 93.5741,61.5443 90.7408,49.3777 99,34.5C 103.274,29.7854 108.441,26.7854 114.5,25.5 Z M 116.5,41.5 C 114.185,42.5844 112.352,44.251 111,46.5C 109.709,54.788 113.209,57.9546 121.5,56C 127.453,48.7166 125.786,43.8832 116.5,41.5 Z"/></g>
<g><path style="opacity:0.927" fill="#000000" d="M 294.5,25.5 C 314.142,26.6439 322.642,36.9772 320,56.5C 315.96,67.0245 308.294,72.6912 297,73.5C 278.755,70.344 271.421,59.6773 275,41.5C 278.725,32.5939 285.225,27.2606 294.5,25.5 Z M 295.5,41.5 C 288.613,45.5329 287.947,50.3662 293.5,56C 297.987,57.3782 301.487,56.2115 304,52.5C 305.483,45.4838 302.649,41.8171 295.5,41.5 Z"/></g>
<g><path style="opacity:0.924" fill="#000000" d="M 63.5,73.5 C 85.8907,72.0547 95.724,82.388 93,104.5C 85.8357,118.83 74.6691,123.33 59.5,118C 47.6245,110.287 44.1245,99.7871 49,86.5C 52.1625,80.1641 56.9958,75.8308 63.5,73.5 Z M 67.5,89.5 C 65.1325,91.198 63.4658,93.5314 62.5,96.5C 65.4984,105.1 70.3317,106.433 77,100.5C 79.0461,92.6599 75.8794,88.9932 67.5,89.5 Z"/></g>
<g><path style="opacity:0.925" fill="#000000" d="M 158.5,73.5 C 172.981,71.3182 182.814,76.9849 188,90.5C 189.223,112.943 178.723,122.443 156.5,119C 142.521,111.622 138.354,100.456 144,85.5C 147.541,79.78 152.374,75.78 158.5,73.5 Z M 161.5,89.5 C 158.349,92.1361 157.182,95.4695 158,99.5C 162.806,106.053 167.473,106.053 172,99.5C 172.661,91.9964 169.161,88.663 161.5,89.5 Z"/></g>
<g><path style="opacity:0.927" fill="#000000" d="M 243.5,73.5 C 261.349,71.5303 271.349,79.3636 273.5,97C 272.343,111.491 264.509,119.324 250,120.5C 232.697,118.526 225.031,108.86 227,91.5C 229.583,82.7529 235.083,76.7529 243.5,73.5 Z M 246.5,89.5 C 245.542,90.9616 244.376,92.2949 243,93.5C 241.554,99.6135 243.887,103.28 250,104.5C 254.511,103.989 257.011,101.489 257.5,97C 256.422,90.7607 252.755,88.2607 246.5,89.5 Z"/></g>
<g><path style="opacity:0.929" fill="#000000" d="M 338.5,73.5 C 362.252,73.0823 371.419,84.4156 366,107.5C 356.714,120.78 344.88,123.613 330.5,116C 322.271,108.977 319.437,100.144 322,89.5C 324.778,81.2202 330.278,75.8869 338.5,73.5 Z M 341.5,89.5 C 337.83,92.2054 336.663,95.8721 338,100.5C 343.487,106.133 348.154,105.466 352,98.5C 352.164,91.508 348.664,88.508 341.5,89.5 Z"/></g>
<g><path style="opacity:0.925" fill="#000000" d="M 112.5,120.5 C 132.147,119.648 141.647,128.981 141,148.5C 136.617,163.197 126.783,169.364 111.5,167C 94.7705,159.487 90.2705,147.32 98,130.5C 102.012,125.762 106.845,122.429 112.5,120.5 Z M 115.5,136.5 C 111.276,138.959 109.776,142.626 111,147.5C 116.081,152.986 120.748,152.653 125,146.5C 125.809,139.474 122.642,136.141 115.5,136.5 Z"/></g>
<g><path style="opacity:0.927" fill="#000000" d="M 292.5,120.5 C 312.641,120.473 321.807,130.473 320,150.5C 312.029,167.824 299.529,171.99 282.5,163C 270.873,150.982 270.54,138.649 281.5,126C 284.99,123.588 288.657,121.755 292.5,120.5 Z M 294.5,136.5 C 290.114,139.596 288.947,143.596 291,148.5C 295.709,152.769 300.042,152.436 304,147.5C 305.367,140.029 302.201,136.362 294.5,136.5 Z"/></g>
<g><path style="opacity:0.935" fill="#000000" d="M 95.5,208.5 C 147.168,208.333 198.834,208.5 250.5,209C 257.987,213.606 258.321,218.606 251.5,224C 202.834,224.5 154.168,224.667 105.5,224.5C 105.5,262.5 105.5,300.5 105.5,338.5C 122.837,338.667 140.17,338.5 157.5,338C 162.456,331.254 167.29,324.421 172,317.5C 172.903,316.299 174.069,315.465 175.5,315C 220.165,314.5 264.832,314.333 309.5,314.5C 309.5,284.5 309.5,254.5 309.5,224.5C 299.494,224.666 289.494,224.5 279.5,224C 275.723,221.089 274.556,217.256 276,212.5C 277.214,210.951 278.714,209.785 280.5,209C 293.833,208.333 307.167,208.333 320.5,209C 322.667,209.833 324.167,211.333 325,213.5C 325.667,251.167 325.667,288.833 325,326.5C 324.167,327.333 323.333,328.167 322.5,329C 275.917,330.324 229.25,330.99 182.5,331C 177.321,339.023 171.655,346.689 165.5,354C 141.5,354.667 117.5,354.667 93.5,354C 92.3333,352.833 91.1667,351.667 90,350.5C 89.3333,304.833 89.3333,259.167 90,213.5C 91.1065,210.887 92.9399,209.22 95.5,208.5 Z"/></g>
<g><path style="opacity:0.899" fill="#000000" d="M 121.5,314.5 C 130.839,314.334 140.173,314.5 149.5,315C 153.861,317.226 155.361,320.726 154,325.5C 153.167,327.667 151.667,329.167 149.5,330C 140.167,330.667 130.833,330.667 121.5,330C 114.914,324.84 114.914,319.673 121.5,314.5 Z"/></g>
</svg>
