<?xml version="1.0" encoding="UTF-8"?>
<!DOCTYPE svg PUBLIC "-//W3C//DTD SVG 1.1//EN" "http://www.w3.org/Graphics/SVG/1.1/DTD/svg11.dtd">
<svg xmlns="http://www.w3.org/2000/svg" version="1.1" width="512px" height="512px" style="shape-rendering:geometricPrecision; text-rendering:geometricPrecision; image-rendering:optimizeQuality; fill-rule:evenodd; clip-rule:evenodd" xmlns:xlink="http://www.w3.org/1999/xlink">
<g><path style="opacity:0.942" fill="#000000" d="M 511.5,419.5 C 511.5,422.833 511.5,426.167 511.5,429.5C 488.004,451.495 464.337,473.329 440.5,495C 434.866,499.719 429.366,499.552 424,494.5C 420.284,488.543 421.118,483.377 426.5,479C 409.016,459.216 391.183,439.716 373,420.5C 364.5,428.333 356,436.167 347.5,444C 344.135,445.797 340.802,445.797 337.5,444C 325.617,433.118 314.784,421.284 305,408.5C 304.088,404.548 304.755,400.881 307,397.5C 311.133,394.369 314.966,390.869 318.5,387C 297.656,363.991 276.656,341.157 255.5,318.5C 234.344,341.157 213.344,363.991 192.5,387C 196.034,390.869 199.867,394.369 204,397.5C 206.245,400.881 206.912,404.548 206,408.5C 196.216,421.284 185.383,433.118 173.5,444C 170.198,445.797 166.865,445.797 163.5,444C 155,436.167 146.5,428.333 138,420.5C 119.817,439.716 101.984,459.216 84.5,479C 91.2513,485.349 90.918,491.349 83.5,497C 78.7786,499.072 74.4453,498.406 70.5,495C 46.663,473.329 22.9963,451.495 -0.5,429.5C -0.5,426.167 -0.5,422.833 -0.5,419.5C 4.93514,412.605 11.1018,411.938 18,417.5C 35.3152,398.017 52.8152,378.684 70.5,359.5C 62.1772,351.345 53.6772,343.345 45,335.5C 43.6323,332.262 43.2989,328.928 44,325.5C 53.784,312.716 64.6173,300.882 76.5,290C 80.2946,289.163 83.9613,289.496 87.5,291C 91.6328,294.131 95.4662,297.631 99,301.5C 122.315,275.351 145.815,249.351 169.5,223.5C 136.233,186.644 102.733,149.977 69,113.5C 65.2838,109.452 61.9504,105.118 59,100.5C 59.8238,74.1594 61.1571,47.8261 63,21.5C 64.6949,15.2233 68.8615,12.2233 75.5,12.5C 96.8189,13.5773 118.152,14.4107 139.5,15C 144.282,15.1186 148.949,15.7852 153.5,17C 187.344,54.3424 221.344,91.5091 255.5,128.5C 289.656,91.5091 323.656,54.3424 357.5,17C 362.051,15.7852 366.718,15.1186 371.5,15C 392.848,14.4107 414.181,13.5773 435.5,12.5C 442.138,12.2233 446.305,15.2233 448,21.5C 449.843,47.8261 451.176,74.1594 452,100.5C 449.05,105.118 445.716,109.452 442,113.5C 408.267,149.977 374.767,186.644 341.5,223.5C 365.185,249.351 388.685,275.351 412,301.5C 415.549,297.65 419.383,294.15 423.5,291C 427.039,289.496 430.705,289.163 434.5,290C 446.383,300.882 457.216,312.716 467,325.5C 467.701,328.928 467.368,332.262 466,335.5C 457.323,343.345 448.823,351.345 440.5,359.5C 458.185,378.684 475.685,398.017 493,417.5C 499.898,411.938 506.065,412.605 511.5,419.5 Z M 83.5,34.5 C 103.267,34.4053 122.934,35.2386 142.5,37C 227.536,129.701 312.202,222.701 396.5,316C 389.167,322.667 381.833,329.333 374.5,336C 373.833,336.667 373.167,336.667 372.5,336C 305.667,262.5 238.833,189 172,115.5C 169.079,111.908 165.579,109.075 161.5,107C 153.525,105.804 149.191,109.137 148.5,117C 148.494,119.3 148.994,121.466 150,123.5C 218.667,198.833 287.333,274.167 356,349.5C 356.667,350.5 356.667,351.5 356,352.5C 348.667,359.167 341.333,365.833 334,372.5C 249.1,279.689 164.433,186.689 80,93.5C 80.8331,73.838 81.9997,54.1713 83.5,34.5 Z M 401.5,34.5 C 410.167,34.5 418.833,34.5 427.5,34.5C 429,54.1713 430.167,73.838 431,93.5C 396.333,131.5 361.667,169.5 327,207.5C 308.202,186.367 289.035,165.533 269.5,145C 302.267,108.81 335.267,72.8104 368.5,37C 379.578,35.8781 390.578,35.0448 401.5,34.5 Z M 183.5,239.5 C 202.819,260.155 221.819,281.155 240.5,302.5C 219.518,325.983 198.351,349.316 177,372.5C 156.167,353.667 135.333,334.833 114.5,316C 137.337,290.331 160.337,264.831 183.5,239.5 Z M 81.5,314.5 C 114.463,344.294 147.296,374.294 180,404.5C 177.26,410.208 173.26,415.208 168,419.5C 135.333,389.5 102.667,359.5 70,329.5C 69.3333,328.833 69.3333,328.167 70,327.5C 73.8409,323.135 77.6742,318.802 81.5,314.5 Z M 428.5,314.5 C 433.111,318.375 437.278,322.708 441,327.5C 441.667,328.167 441.667,328.833 441,329.5C 408.333,359.5 375.667,389.5 343,419.5C 337.74,415.208 333.74,410.208 331,404.5C 363.696,374.634 396.196,344.634 428.5,314.5 Z M 85.5,374.5 C 86.552,374.351 87.552,374.517 88.5,375C 99.6779,385.345 110.678,395.845 121.5,406.5C 103.815,425.684 86.3152,445.017 69,464.5C 57.4664,453.298 45.6331,442.465 33.5,432C 50.6706,412.664 68.0039,393.497 85.5,374.5 Z M 422.5,374.5 C 426.642,376.12 430.142,378.786 433,382.5C 447.463,399.298 462.296,415.798 477.5,432C 465.367,442.465 453.534,453.298 442,464.5C 424.685,445.017 407.185,425.684 389.5,406.5C 400.521,395.812 411.521,385.145 422.5,374.5 Z"/></g>
</svg>
