<?xml version="1.0" encoding="UTF-8"?>
<!DOCTYPE svg PUBLIC "-//W3C//DTD SVG 1.1//EN" "http://www.w3.org/Graphics/SVG/1.1/DTD/svg11.dtd">
<svg xmlns="http://www.w3.org/2000/svg" version="1.1" width="512px" height="512px" style="shape-rendering:geometricPrecision; text-rendering:geometricPrecision; image-rendering:optimizeQuality; fill-rule:evenodd; clip-rule:evenodd" xmlns:xlink="http://www.w3.org/1999/xlink">
<g><path style="opacity:0.95" fill="#000000" d="M 511.5,196.5 C 511.5,211.5 511.5,226.5 511.5,241.5C 503.358,276.805 481.358,297.638 445.5,304C 429.503,304.5 413.503,304.667 397.5,304.5C 394.499,367.633 364.166,411.8 306.5,437C 297.049,440.446 287.382,443.113 277.5,445C 281.333,448.833 285.167,452.667 289,456.5C 293.665,465.855 290.998,471.855 281,474.5C 279.112,474.204 277.278,473.704 275.5,473C 268.986,466.319 262.319,459.819 255.5,453.5C 248.681,459.819 242.014,466.319 235.5,473C 224.688,475.856 219.521,471.689 220,460.5C 223.754,454.742 228.254,449.575 233.5,445C 180.807,434.63 143.973,404.797 123,355.5C 116.816,339.061 113.649,322.061 113.5,304.5C 97.4965,304.667 81.4965,304.5 65.5,304C 29.642,297.638 7.64196,276.805 -0.5,241.5C -0.5,226.5 -0.5,211.5 -0.5,196.5C 0.977392,194.193 2.97739,192.36 5.5,191C 34.839,190.833 64.1723,190.333 93.5,189.5C 109.626,151.288 125.46,112.955 141,74.5C 158.037,43.9036 183.87,32.0702 218.5,39C 233.66,43.9111 245.994,52.7444 255.5,65.5C 280.001,35.699 309.667,29.199 344.5,46C 354,51.5 361.5,59 367,68.5C 383.833,108.833 400.667,149.167 417.5,189.5C 446.828,190.333 476.161,190.833 505.5,191C 508.023,192.36 510.023,194.193 511.5,196.5 Z M 195.5,57.5 C 217.292,57.1428 232.792,66.8095 242,86.5C 243.667,94.1835 245.333,101.85 247,109.5C 253.667,114.833 259.667,114.167 265,107.5C 266.478,78.1949 281.645,61.5282 310.5,57.5C 330.293,58.6461 344.127,68.3127 352,86.5C 366.069,120.874 380.236,155.207 394.5,189.5C 301.833,190.833 209.167,190.833 116.5,189.5C 132,152.5 147.5,115.5 163,78.5C 170.885,66.7546 181.718,59.7546 195.5,57.5 Z M 19.5,211.5 C 176.833,211.5 334.167,211.5 491.5,211.5C 494.672,234.819 488.005,254.652 471.5,271C 463.216,277.321 453.882,281.321 443.5,283C 318.167,283.667 192.833,283.667 67.5,283C 42.6701,278.504 27.1701,264.004 21,239.5C 19.9331,230.196 19.4331,220.862 19.5,211.5 Z M 134.5,304.5 C 215.167,304.5 295.833,304.5 376.5,304.5C 373.943,355.48 349.943,392.313 304.5,415C 258.068,433.363 215.401,427.029 176.5,396C 149.514,371.576 135.514,341.076 134.5,304.5 Z"/></g>
<g><path style="opacity:0.949" fill="#000000" d="M 90.5,236.5 C 200.501,236.333 310.501,236.5 420.5,237C 429.074,239.652 431.574,245.152 428,253.5C 426.786,255.049 425.286,256.215 423.5,257C 311.5,257.667 199.5,257.667 87.5,257C 82.3652,253.945 80.5319,249.445 82,243.5C 83.8507,239.843 86.6841,237.51 90.5,236.5 Z"/></g>
</svg>
